<?xml version="1.0" encoding="UTF-8"?>
<svg xmlns="http://www.w3.org/2000/svg" xmlns:xlink="http://www.w3.org/1999/xlink" x="0px" y="0px" viewBox="0 0 64 64" style="enable-background:new 0 0 64 64;" xml:space="preserve">
  <g fill="currentColor">
    <path d="M21.5,58H6v-2h5.832l-3.226-3.78l0.904-2.713l-1.662-0.831l-0.475-2.375C4.698,48.684,3,52.143,3,56v2c0,1.654,1.346,3,3,3   h13.791H21.5c0.827,0,1.5-0.673,1.5-1.5S22.327,58,21.5,58z"></path>
    <path d="M11.7,48.365l-1.492-3.987c-0.364,0.182-0.717,0.38-1.06,0.594l0.47,2.351L11.7,48.365z"></path>
    <polygon points="41.82,49 40.22,57 45.78,57 44.18,49  "></polygon>
    <path d="M26,48v-0.285c-0.425-0.512-0.886-0.981-1.373-1.417l-0.475,2.377l-1.662,0.831l0.904,2.713L20.168,56H21.5   c1.93,0,3.5,1.57,3.5,3.5c0,0.539-0.133,1.044-0.351,1.5H29v-5c0-1.27-0.191-2.519-0.55-3.723C26.99,51.403,26,49.822,26,48z"></path>
    <path d="M22.856,44.954c-0.343-0.214-0.697-0.41-1.058-0.59L20.3,48.365l2.082-1.041L22.856,44.954z"></path>
    <path d="M49,59H37c-1.103,0-2,0.897-2,2h16C51,59.897,50.103,59,49,59z"></path>
    <circle cx="16" cy="35" r="6"></circle>
    <polygon points="21.139,51.78 20.142,48.788 17.442,56 17.539,56  "></polygon>
    <polygon points="10.861,51.78 14.461,56 14.558,56 11.858,48.788  "></polygon>
    <path d="M19.94,43.622C18.682,43.224,17.36,43,16,43c-1.375,0-2.698,0.218-3.943,0.615L16,54.148L19.94,43.622z"></path>
    <path d="M38,15h-2v4h2c1.103,0,2-0.897,2-2S39.103,15,38,15z"></path>
    <path d="M27.5,15c-1.378,0-2.5,1.122-2.5,2.5V21h5v-3.5C30,16.122,28.878,15,27.5,15z"></path>
    <path d="M55,31H31c-1.654,0-3,1.346-3,3v14c0,1.654,1.346,3,3,3h8.38l0.8-4h5.64l0.8,4H55c1.654,0,3-1.346,3-3V34   C58,32.346,56.654,31,55,31z M56,49h-2v-2h2V49z M56,45h-2v-2h2V45z M56,41h-2v-2h2V41z"></path>
    <path d="M54,17c-0.352,0-0.701,0.033-1.046,0.085C52.97,17.39,53,17.691,53,18c0,2.204-0.416,4.349-1.236,6.375l-1.854-0.75   C50.633,21.838,51,19.945,51,18c0-8.271-6.729-15-15-15c-7.545,0-13.938,5.645-14.871,13.13l-0.111,0.895l-1.014-0.024   c0,0-0.001,0-0.002,0C16.139,17.001,13,20.141,13,24c0,1.166,0.3,2.29,0.845,3.303C14.532,27.111,15.253,27,16,27   c2.953,0,5.532,1.613,6.918,4h4.108c0.914-1.207,2.348-2,3.974-2h24c1.038,0,2.002,0.319,2.802,0.862   C59.784,28.576,61,26.391,61,24C61,20.14,57.86,17,54,17z M32,27h-2v-4h-5v4h-2v-9.5c0-2.481,2.019-4.5,4.5-4.5s4.5,2.019,4.5,4.5   V27z M38,21h-2v6h-2V13h4c2.206,0,4,1.794,4,4S40.206,21,38,21z M49,15h-2v10h2v2h-6v-2h2V15h-2v-2h6V15z"></path>
  </g>
</svg>
