<svg fill="currentColor" xmlns="http://www.w3.org/2000/svg" xmlns:xlink="http://www.w3.org/1999/xlink" version="1.1" x="0px" y="0px" viewBox="0 0 512 512" style="enable-background:new 0 0 512 512;" xml:space="preserve"><g><g><g><path d="M256,110c-24.813,0-45-20.187-45-45s20.187-45,45-45c24.813,0,45,20.187,45,45S280.813,110,256,110z M256,40     c-13.785,0-25,11.215-25,25s11.215,25,25,25s25-11.215,25-25S269.785,40,256,40z"/></g><g><path d="M445,306c-24.813,0-45-20.187-45-45c0-24.813,20.187-45,45-45s45,20.187,45,45C490,285.813,469.813,306,445,306z      M445,236c-13.785,0-25,11.215-25,25s11.215,25,25,25s25-11.215,25-25S458.785,236,445,236z"/></g><g><path d="M255,490c-24.813,0-45-20.187-45-45s20.187-45,45-45c24.813,0,45,20.187,45,45S279.813,490,255,490z M255,420     c-13.785,0-25,11.215-25,25s11.215,25,25,25s25-11.215,25-25S268.785,420,255,420z"/></g><g><path d="M55,300c-24.813,0-45-20.187-45-45c0-24.813,20.187-45,45-45s45,20.187,45,45C100,279.813,79.813,300,55,300z M55,230     c-13.785,0-25,11.215-25,25s11.215,25,25,25s25-11.215,25-25S68.785,230,55,230z"/></g><g><path d="M250,496c-64.106,0-124.375-24.964-169.706-70.294S10,320.106,10,256S34.964,131.625,80.294,86.294S185.894,16,250,16     s124.376,24.964,169.706,70.294S490,191.894,490,256s-24.964,124.376-70.294,169.706S314.106,496,250,496z M250,36     C128.691,36,30,134.691,30,256s98.691,220,220,220s220-98.691,220-220S371.309,36,250,36z"/></g><g><path d="M367.333,418.333H130.667c-25.732,0-46.667-20.935-46.667-46.666V138.333c0-25.732,20.935-46.667,46.667-46.667h236.667     c25.732,0,46.667,20.935,46.667,46.667v233.333C414,397.398,393.065,418.333,367.333,418.333z M130.667,111.667     c-14.704,0-26.667,11.963-26.667,26.667v233.333c0,14.704,11.962,26.666,26.667,26.666h236.667     c14.704,0,26.667-11.962,26.667-26.666V138.333c0-14.704-11.963-26.667-26.667-26.667H130.667z"/></g><g><path d="M209.991,330.001c-1.853,0-3.727-0.514-5.401-1.591c-4.645-2.988-5.987-9.176-2.999-13.82     c30.32-47.127,88.047-136.875,89.881-139.811c2.861-4.675,8.963-6.179,13.674-3.354c4.735,2.842,6.271,8.984,3.43,13.72     c-1.003,1.67-69.267,107.783-90.166,140.265C216.499,328.381,213.278,330.001,209.991,330.001z"/></g><g><path d="M310.009,310.001c-3.231,0-6.402-1.563-8.329-4.454c-3.063-4.595-1.822-10.804,2.773-13.867l49.851-33.234     l-41.375-41.374c-3.905-3.905-3.905-10.237,0-14.143c3.906-3.905,10.236-3.905,14.143,0l50,50     c2.118,2.119,3.175,5.075,2.88,8.057s-1.911,5.673-4.404,7.335l-60,40C313.842,309.457,311.915,310.001,310.009,310.001z"/></g><g><path d="M180,310c-2.559,0-5.119-0.977-7.071-2.929l-50-50c-2.118-2.119-3.175-5.075-2.88-8.057     c0.295-2.981,1.912-5.673,4.404-7.335l60-40c4.594-3.064,10.804-1.822,13.867,2.773c3.064,4.595,1.822,10.804-2.773,13.867     l-49.851,33.234l41.375,41.375c3.905,3.905,3.905,10.237,0,14.143C185.119,309.023,182.559,310,180,310z"/></g></g><rect x="130" y="130" width="20" height="20"/><rect x="360" y="130" width="20" height="20"/><rect x="360" y="360" width="20" height="20"/><rect x="130" y="360" width="20" height="20"/></g><text x="0" y="527" font-size="5px" font-weight="bold" font-family="'Helvetica Neue', Helvetica, Arial-Unicode, Arial, Sans-serif">Created by Flatart</text><text x="0" y="532" font-size="5px" font-weight="bold" font-family="'Helvetica Neue', Helvetica, Arial-Unicode, Arial, Sans-serif">from the Noun Project</text></svg>