<?xml version="1.0" encoding="UTF-8" standalone="no"?>
<svg
   xmlns:dc="http://purl.org/dc/elements/1.1/"
   xmlns:cc="http://creativecommons.org/ns#"
   xmlns:rdf="http://www.w3.org/1999/02/22-rdf-syntax-ns#"
   xmlns:svg="http://www.w3.org/2000/svg"
   xmlns="http://www.w3.org/2000/svg"
   id="svg866"
   version="1.1"
   viewBox="0 0 120.65779 120.65778"
   height="456.02939"
   fill="currentColor"
   width="456.02945">
  <title
     id="title4449">Corner Flourish  3</title>
  <defs
     id="defs860" />
  <metadata
     id="metadata863">
    <rdf:RDF>
      <cc:Work
         rdf:about="">
        <dc:format>image/svg+xml</dc:format>
        <dc:type
           rdf:resource="http://purl.org/dc/dcmitype/StillImage" />
        <dc:title>Corner Flourish  3</dc:title>
        <cc:license
           rdf:resource="http://creativecommons.org/publicdomain/zero/1.0/" />
        <dc:subject>
          <rdf:Bag>
            <rdf:li>flourish</rdf:li>
            <rdf:li>swirls</rdf:li>
            <rdf:li>Art Nouveau</rdf:li>
            <rdf:li>border</rdf:li>
            <rdf:li>frame</rdf:li>
            <rdf:li>corner</rdf:li>
            <rdf:li>corner rule</rdf:li>
            <rdf:li>embellishment</rdf:li>
          </rdf:Bag>
        </dc:subject>
        <dc:description>corner flourish</dc:description>
        <dc:creator>
          <cc:Agent>
            <dc:title>Arvin61r58</dc:title>
          </cc:Agent>
        </dc:creator>
        <dc:publisher>
          <cc:Agent>
            <dc:title>Openclipart.org</dc:title>
          </cc:Agent>
        </dc:publisher>
        <dc:identifier>https://openclipart.org/</dc:identifier>
        <dc:source>https://openclipart.org/user-detail/Arvin61r58</dc:source>
      </cc:Work>
      <cc:License
         rdf:about="http://creativecommons.org/publicdomain/zero/1.0/">
        <cc:permits
           rdf:resource="http://creativecommons.org/ns#Reproduction" />
        <cc:permits
           rdf:resource="http://creativecommons.org/ns#Distribution" />
        <cc:permits
           rdf:resource="http://creativecommons.org/ns#DerivativeWorks" />
      </cc:License>
    </rdf:RDF>
  </metadata>
  <g
     transform="translate(-44.671105,-88.17111)"
     id="layer1" />
  <g
     transform="translate(1.3229283,1.3229167)"
     id="g4445">
    <title
       id="title4447">Corner Flourish 3  --  by Arvin61r58</title>
    <g
       style="stroke-width:0.33332992"
       transform="matrix(0,2.9982308,3.0018315,0,-460.04184,-76.999534)"
       id="g1858">
      <path
         id="path899"
         d="m 25.995312,161.30497 c -0.519926,-0.59053 -0.390642,-1.32423 0.366809,-2.08169 0.765841,-0.76584 1.851573,-0.90814 2.798727,-0.3668 0.963091,0.55044 1.914149,1.4908 1.712105,1.69284 -0.104559,0.10456 -0.330997,0.0492 -0.503197,-0.12298 -0.585831,-0.58583 -1.803466,-0.35973 -2.588507,0.48066 -0.811626,0.86885 -1.27956,0.97312 -1.785937,0.39797 z"
         style="stroke-width:0.08819354" />
      <path
         id="path895"
         d="m 32.543749,160.82422 c 0,-0.37456 -1.342663,-1.7693 -1.703234,-1.7693 -0.12049,0 -0.411631,-0.2104 -0.646981,-0.46756 -0.23535,-0.25716 -1.023222,-0.75696 -1.750826,-1.11067 -1.810255,-0.88002 -2.248958,-1.29472 -2.248958,-2.12593 0,-0.87003 0.73825,-1.5875 1.633472,-1.5875 0.785276,0 1.209832,0.45905 2.079957,2.24896 0.353709,0.7276 0.853511,1.51547 1.110672,1.75082 0.257161,0.23535 0.467565,0.5405 0.467565,0.6781 0,0.35347 1.419824,1.67212 1.800415,1.67212 0.173938,0 0.316252,0.23812 0.316252,0.52916 0,0.35278 -0.176389,0.52917 -0.529167,0.52917 -0.291042,0 -0.529167,-0.15632 -0.529167,-0.34737 z"
         style="stroke-width:0.08819354" />
      <path
         id="path852"
         d="m 32.128442,157.91072 c -1.396512,-1.68171 -1.543107,-2.91064 -0.474655,-3.97909 0.775857,-0.77586 1.528615,-0.89044 2.099486,-0.31956 0.554925,0.55492 0.469635,0.91159 -0.415774,1.73869 -0.803991,0.75104 -1.100682,2.16032 -0.529166,2.51354 0.318491,0.19684 0.352006,0.66146 0.04771,0.66146 -0.119278,0 -0.4467,-0.27677 -0.727604,-0.61504 z"
         style="stroke-width:0.08819354" />
    </g>
    <path
       style="stroke-width:0.26962948"
       d="m 32.0414,40.70495 c -1.52977,-0.7349 -1.94678,-1.14226 -2.74108,-2.677721 -0.96967,-1.87445 -0.96684,-4.30702 0.007,-6.18993 0.80082,-1.54808 1.04365,-1.77676 2.79194,-2.62938 1.76883,-0.86263 3.90338,-0.8425 5.77186,0.0544 1.60706,0.77144 1.84445,1.00535 2.72955,2.68948 0.91968,1.74995 0.89651,4.24704 -0.0565,6.08932 -0.80083,1.548081 -1.04365,1.776761 -2.79195,2.629381 -1.62522,0.7926 -4.1017,0.80752 -5.71102,0.0344 z m 5.76103,-0.70319 c 1.89552,-0.98772 2.84285,-2.674721 2.84285,-5.062531 0,-3.44261 -2.30936,-5.77408 -5.71933,-5.77408 -3.40998,0 -5.71934,2.33147 -5.71934,5.77408 0,3.44261 2.30936,5.774081 5.71934,5.774081 1.11825,0 1.86585,-0.18493 2.87648,-0.71155 z m -5.57749,-0.43102 c -2.3935,-1.217581 -3.26899,-4.701921 -1.85666,-7.389241 1.77094,-3.3697 7.34439,-3.3697 9.11533,0 0.90077,1.71395 0.90077,3.80151 0,5.51546 -1.24566,2.370221 -4.58714,3.232801 -7.25867,1.873781 z m 3.45648,-1.137651 c 0.33997,-0.69314 0.61812,-1.4607 0.61812,-1.70568 0,-0.2858 0.58965,-0.70972 1.64545,-1.18296 0.905,-0.40565 1.64546,-0.79708 1.64546,-0.86985 0,-0.0728 -0.70955,-0.45241 -1.57678,-0.84362 -1.41425,-0.63799 -1.64755,-0.86291 -2.26357,-2.18232 -0.37774,-0.80906 -0.74861,-1.47102 -0.82415,-1.47102 -0.0755,0 -0.44643,0.66196 -0.82416,1.47102 -0.61601,1.31941 -0.84932,1.54433 -2.26358,2.18232 -0.86722,0.39121 -1.57676,0.77084 -1.57676,0.84362 0,0.0728 0.74044,0.4642 1.64544,0.86985 1.05582,0.47324 1.64546,0.89716 1.64546,1.18296 0,0.48377 1.14955,2.965941 1.3736,2.965941 0.0756,0 0.4155,-0.56712 0.75547,-1.260261 z m -1.03019,-1.6414 c 0,-0.91018 -0.83844,-1.85246 -1.64831,-1.85246 -0.3022,0 -0.54945,-0.11908 -0.54945,-0.26463 0,-0.14555 0.24725,-0.26465 0.54945,-0.26465 0.30218,0 0.79668,-0.23817 1.09887,-0.52927 0.30219,-0.2911 0.54944,-0.76745 0.54944,-1.05855 0,-0.2911 0.12362,-0.52927 0.27472,-0.52927 0.15109,0 0.27471,0.23817 0.27471,0.52927 0,0.2911 0.24726,0.76745 0.54944,1.05855 0.30219,0.2911 0.79669,0.52927 1.09888,0.52927 0.30219,0 0.54944,0.1191 0.54944,0.26465 0,0.14555 -0.24725,0.26463 -0.54944,0.26463 -0.80987,0 -1.64832,0.94228 -1.64832,1.85246 0,0.43666 -0.12362,0.79391 -0.27471,0.79391 -0.1511,0 -0.27472,-0.35725 -0.27472,-0.79391 z m 1.0073,-2.11709 c 0,-0.58809 -0.12209,-0.70571 -0.73258,-0.70571 -0.61049,0 -0.73259,0.11762 -0.73259,0.70571 0,0.58808 0.1221,0.70569 0.73259,0.70569 0.61049,0 0.73258,-0.11761 0.73258,-0.70569 z m -3.20607,2.77972 c 0.35431,-0.36329 0.5608,-0.74087 0.45888,-0.83906 -0.20072,-0.19334 -1.55674,0.92259 -1.55674,1.28111 0,0.40405 0.44902,0.22326 1.09786,-0.44205 z m 6.04483,0.44205 c 0,-0.35852 -1.35603,-1.47445 -1.55674,-1.28111 -0.10192,0.0982 0.10457,0.47577 0.45889,0.83906 0.64882,0.66531 1.09785,0.8461 1.09785,0.44205 z m -5.49437,-5.29275 c 0,-0.35852 -1.35604,-1.47445 -1.55675,-1.2811 -0.10192,0.0982 0.10458,0.47576 0.45888,0.83906 0.64883,0.6653 1.09787,0.8461 1.09787,0.44204 z m 4.94391,-0.44204 c 0.35432,-0.3633 0.56081,-0.74088 0.45889,-0.83906 -0.20071,-0.19335 -1.55674,0.92258 -1.55674,1.2811 0,0.40406 0.44903,0.22326 1.09785,-0.44204 z"
       id="path891" />
    <path
       d="m 21.445734,52.552482 c 0.692415,0.692415 2.734172,1.223725 4.656828,1.21181 1.460128,-0.009 1.859594,0.06186 2.041736,0.362416 0.580414,0.957755 2.591676,1.213749 4.89442,0.622967 0.883962,-0.226791 2.029387,-0.39933 2.545387,-0.383421 0.521487,0.01608 1.221526,-0.132302 1.576121,-0.334066 0.790786,-0.449949 1.89705,-1.79892 2.734471,-3.334399 0.778388,-1.427237 1.206375,-1.722073 1.861021,-1.282033 0.831905,0.559187 1.119759,1.547367 0.603759,2.072659 -0.179231,0.182271 -0.341523,0.117716 -0.763001,-0.303762 -0.588898,-0.588898 -0.771431,-0.551804 -0.729545,0.14826 0.09359,1.564169 2.268729,1.396997 2.585835,-0.198737 0.09786,-0.492425 0.0028,-0.646181 -1.320774,-2.137229 -1.650285,-1.859041 -1.968516,-2.57282 -1.733125,-3.887291 0.211202,-1.179428 0.646563,-1.940885 1.727991,-3.022313 1.655043,-1.655045 3.505521,-2.152469 4.969065,-1.335724 0.371252,0.20718 1.309175,0.928112 2.08427,1.602072 1.365071,1.186951 1.429105,1.22073 2.04201,1.077152 1.489563,-0.34894 1.538202,-2.613784 0.05487,-2.554583 -0.680913,0.02717 -0.694831,0.137376 -0.09331,0.738895 0.51451,0.51451 0.522296,0.561715 0.142108,0.861826 -0.514164,0.405879 -1.370802,0.124405 -1.883091,-0.618749 -0.493062,-0.715261 -0.273278,-1.064016 1.195577,-1.897135 1.47488,-0.836539 2.837654,-1.919793 3.305521,-2.627521 0.199027,-0.301065 0.365741,-1.079556 0.392893,-1.834653 0.02593,-0.721424 0.201849,-1.795924 0.390922,-2.387777 0.634186,-1.985262 0.275386,-4.543848 -0.682377,-4.865931 -0.263716,-0.08869 -0.340952,-0.56853 -0.352616,-2.19069 -0.01596,-2.219641 -0.286223,-3.352323 -1.049801,-4.399769 -0.700259,-0.960589 -0.807105,-0.48147 -0.277586,1.244763 1.135639,3.702186 0.452049,6.079665 -2.638447,9.176355 -1.903783,1.907596 -2.593373,3.392373 -2.804081,6.037556 l -0.12072,1.515529 -0.963892,0.0033 c -3.244894,0.01123 -6.129836,2.788319 -6.207149,5.975098 l -0.02944,1.213562 -1.623767,0.151078 c -2.70661,0.251824 -3.999926,0.856646 -5.911716,2.764613 -2.237395,2.232947 -4.415011,3.302569 -6.507601,3.196527 -0.613191,-0.03107 -1.821251,-0.268694 -2.68457,-0.528043 -0.863322,-0.259352 -1.623382,-0.417835 -1.689025,-0.352192 -0.06564,0.06564 0.05174,0.290436 0.260843,0.499545 z m 8.041705,0.300266 c 0.56675,-0.272263 1.214034,-0.676757 1.4384,-0.898868 0.724688,-0.717424 0.889107,-0.658696 1.642289,0.586544 0.495301,0.818883 0.613927,1.168888 0.451299,1.331516 -0.585722,0.585721 -3.769526,0.449011 -4.407807,-0.189272 -0.298326,-0.298324 -0.367798,-0.232492 0.875819,-0.82992 z M 53.635551,28.584072 c 0.385669,0.385669 0.565823,1.29607 0.540169,2.729709 -0.01404,0.785072 -0.144889,1.546754 -0.290759,1.692623 -0.263177,0.263178 -0.418396,0.203227 -2.000264,-0.772563 -0.567121,-0.349835 -0.541145,-0.685242 0.10526,-1.359035 0.247333,-0.257833 0.601671,-0.848212 0.787399,-1.311977 0.418261,-1.04439 0.593129,-1.243823 0.858195,-0.978757 z M 34.146986,49.131579 c 0.405779,-0.306651 1.268914,-0.742505 1.918072,-0.968564 1.180538,-0.411104 2.889,-0.599589 2.891801,-0.319036 7.81e-4,0.08188 -0.566442,0.56727 -1.260767,1.078461 -1.152891,0.84904 -1.340721,1.057474 -2.167932,2.40573 -0.498126,0.811883 -0.971054,1.541523 -1.050957,1.621424 -0.490659,0.490661 -2.036624,-1.811899 -1.720455,-2.562451 0.09181,-0.21795 0.276175,-0.464164 0.40969,-0.547143 0.13352,-0.08298 0.574765,-0.401769 0.980548,-0.708421 z M 50.868387,32.843224 c 0.962651,0.08944 2.449945,1.265242 2.074867,1.64032 -0.0651,0.0651 -0.789892,0.537939 -1.610633,1.050739 -1.345913,0.840928 -1.583331,1.055025 -2.420907,2.183107 -0.510757,0.687908 -1.00209,1.250008 -1.091847,1.249113 -0.335796,-0.0034 -0.201867,-1.374656 0.26885,-2.752766 0.767522,-2.247052 1.771311,-3.464201 2.77967,-3.370513 z M 39.005523,48.999682 c 1.031514,-0.376865 0.945169,0.266252 -0.303321,2.259224 -0.914827,1.460345 -1.344875,1.863215 -2.353796,2.205051 -1.26921,0.430027 -1.347417,0.162165 -0.392409,-1.343951 0.738286,-1.164329 2.427964,-2.893237 3.049526,-3.120326 v 0 z M 52.53465,35.749451 c 0.456369,-0.265287 0.886652,-0.418756 0.95618,-0.341043 0.217234,0.242815 -0.289603,1.753022 -0.74156,2.209599 -0.564807,0.570551 -2.603331,1.842599 -3.309386,2.065041 -0.596828,0.188027 -0.756819,-0.02452 -0.507268,-0.673918 0.203312,-0.529074 2.535824,-2.639891 3.602034,-3.259679 z"
       id="path3071-2"
       style="fill-opacity:1;fill-rule:evenodd;stroke:none;stroke-width:0.14882813" />
    <path
       d="m 42.483028,43.081706 c -0.833003,1.585088 -0.508411,3.289395 0.828066,4.347842 0.987477,0.782049 1.660899,0.886078 3.010459,0.465047 1.262685,-0.393921 1.702679,-0.886004 2.067952,-2.312743 0.457371,-1.786497 -0.885926,-3.620656 -2.885429,-3.939807 -1.081182,-0.172572 -2.538828,0.522056 -3.021048,1.439661 z m 1.897157,-0.597517 c 1.001112,-0.195889 2.098313,0.0699 2.676866,0.648453 1.343316,1.343316 0.532451,3.815199 -1.366895,4.166935 -0.917859,0.169976 -1.578676,-0.03607 -2.248911,-0.701227 -1.430567,-1.419738 -0.897663,-3.754786 0.93894,-4.114161 z"
       id="path3841-1"
       style="fill-opacity:1;fill-rule:evenodd;stroke:none;stroke-width:0.14882813" />
    <g
       id="g4305">
      <g
         id="g3636">
        <path
           id="path1739"
           d="m 1.03e-4,36.688504 c -0.009,2.218952 0.57244,4.431536 1.76385,6.351552 1.7344,2.214951 4.94476,3.032008 7.51853,2.604103 1.30835,-0.320399 2.80923,-1.316216 3.66878,-2.434348 1.07589,-1.409789 0.60492,-4.852458 -0.38023,-6.644941 -1.02312,-1.744298 -2.53009,-2.425146 -3.98463,-1.800666 -1.46326,0.628221 -2.03541,1.994376 -1.56812,3.744345 0.37161,1.391325 0.64313,1.441508 0.78445,0.144953 0.1839,-1.687215 1.09638,-2.023227 2.10529,-0.775536 1.64578,2.035268 0.46696,5.396617 -2.10103,5.990332 -0.77218,0.17853 -1.35762,0.155762 -2.5855,-0.100768 -1.4036,-0.29319 -1.67956,-0.4189 -2.38513,-1.084818 -0.43883,-0.414165 -0.91127,-1.076439 -1.04954,-1.472002 -0.84606,-2.420221 -1.02604,-4.720264 -0.50036,-6.395734 0.46846,-1.493142 1.64698,-3.699862 2.33397,-4.370662 1.75433,-1.67094 4.08608,-1.92373 6.531,-1.51735 1.69791,0.32875 2.73369,0.77332 3.8013,1.63207 0.62099,0.49949 2.48117,3.37261 2.69907,4.16874 0.15881,0.58019 0.69368,2.338305 1.04529,3.436222 0.14831,0.463102 0.57315,4.228757 0.57089,5.062869 0,0.277785 0.0554,1.243576 0.12479,2.146381 0.39739,5.169623 -2.27673,17.149919 -5.18959,23.249743 -0.29155,0.610543 -0.7269,1.617796 -0.96739,2.238236 -0.24048,0.620435 -0.7186,1.664762 -1.06233,2.320789 -0.34374,0.65602 -0.72537,1.423439 -0.8484,1.705322 -0.31474,0.721144 -0.55691,0.582682 -0.53486,-0.305796 0.0369,-1.487992 0.005,-3.607459 -0.0725,-4.77374 -0.0436,-0.653028 -0.0378,-1.400808 0.0128,-1.661914 0.0505,-0.261104 0.0815,-0.864509 0.069,-1.341003 -0.0126,-0.476494 -0.0261,-1.367458 -0.0306,-1.979723 -0.008,-1.199494 -0.0169,-1.659202 -0.0876,-4.766765 -0.0587,-2.578856 -0.10478,-3.484479 -0.22246,-4.388878 -0.12899,-0.991261 0.57362,-4.098601 1.10845,-4.902414 0.68298,-1.026517 1.29227,-1.302895 2.40024,-1.088307 0.85191,0.165001 1.02316,0.281754 1.48443,1.009628 0.71654,1.130761 0.56192,1.843179 -0.55388,2.550234 -0.67135,0.425436 -0.795,0.581916 -0.60267,0.763131 0.30553,0.287812 0.31428,0.287923 1.07474,0.01939 0.96321,-0.340155 1.54009,-0.966406 1.72974,-1.878181 0.37362,-1.795837 -0.76623,-3.622931 -2.46571,-3.952083 -1.72375,-0.333863 -3.99117,1.674947 -4.43579,3.929604 -0.18431,0.934575 -0.48555,0.881122 -0.94645,-0.167432 -0.51989,-1.182743 -0.9489,-1.750988 -2.02314,-2.680456 -1.09353,-0.946132 -2.25945,-1.183828 -3.61722,-0.736776 -1.35286,0.445425 -1.94353,1.168408 -2.24288,2.745569 -0.20412,1.075004 -0.17073,1.516086 0.21897,2.909511 0.25267,0.90339 0.70035,2.035558 0.9949,2.515739 0.90036,1.467673 2.15491,4.349777 2.54908,5.855843 0.33509,1.280412 0.33818,1.563171 0.0306,2.734718 -0.18866,0.71864 -0.51816,1.636185 -0.73212,2.03941 -0.21395,0.403235 -0.53603,1.11432 -0.71585,1.579749 -0.17983,0.465435 -0.49244,1.132207 -0.69492,1.48208 -0.99995,1.727831 -1.58099,3.823502 -1.68827,6.090714 -0.0747,1.579421 0.25006,1.325177 0.59725,-0.467414 0.16881,-0.871557 0.4756,-1.926395 0.68174,-2.344043 0.46569,-0.943491 1.38414,-2.28311 1.78788,-2.60798 0.28967,-0.233071 1.3497,-1.448632 2.1363,-2.44985 2.94719,-4.010059 1.01546,-6.905024 -1.44952,-10.454013 -2.55557,-3.70943 -3.16391,-5.063756 -2.89595,-6.447282 0.1319,-0.68103 0.70421,-1.362111 1.72238,-2.049875 0.96951,-0.654892 3.13121,0.545762 4.06525,2.257615 0.97853,1.793407 1.23521,3.12547 1.32008,6.853069 0.0254,1.116612 0.0572,2.395998 0.0705,2.843238 0.0132,0.447247 0.0264,1.268639 0.0294,1.825081 0.003,0.556435 0.0313,1.653241 0.0624,2.43745 0.0311,0.784201 0.0518,1.834382 0.0465,2.333577 -0.005,0.499204 -0.0163,1.452184 -0.024,2.117701 -0.008,0.665522 -0.007,1.665988 0.002,2.223507 0.009,0.557504 0.003,1.466048 -0.0128,2.018869 -0.0395,1.397099 -0.008,3.135176 0.0601,3.314914 0.0313,0.08259 -0.16617,0.605834 -0.43873,1.162721 -0.27254,0.556887 -1.03734,2.180969 -1.69951,3.60908 -0.66218,1.42811 -1.42537,3.00838 -1.69602,3.5118 -0.71262,1.32557 -1.202,2.77689 -2.14406,6.3562 -1.04253,3.96099 -1.21186,4.84792 -1.37782,7.21158 -0.0731,1.041937 -0.18999,2.611067 -0.25929,3.486997 -0.0693,0.87594 -0.11934,2.04871 -0.11162,2.60605 0.007,0.55734 0.009,1.51248 0.003,2.12273 -0.006,0.61026 -0.003,1.56479 0,2.12119 0.003,0.55642 0.002,1.51172 0,2.12274 -0.004,1.02244 0.10462,1.56982 0,4.55825 -0.012,0.34316 -0.009,0.64664 0.0124,0.90615 0.25815,0.2342 0.4804556,0.32502 0.5988,0 0.0151,-0.36275 0.0203,-0.84776 0.0182,-1.50107 -0.004,-1.17703 0.004,-3.09176 0.0167,-4.24161 0.006,-0.49918 0.0109,-1.45288 0.0124,-2.11963 9.9e-4,-0.66677 0.006,-1.66632 0.0112,-2.22119 0.005,-0.55485 -5.9e-4,-1.6476 -0.0128,-2.42814 -0.0272,-1.7461 0.40368,-6.331987 0.75538,-8.039827 0.27797,-1.34985 1.45653,-5.54929 1.77548,-6.32636 0.10567,-0.25746 0.37534,-0.93268 0.59957,-1.50068 1.01449,-2.56993 1.35914,-3.34387 1.8871,-4.24044 0.4146,-0.73438 2.26778,-5.570479 2.0956,-2.03127 -0.0642,0.33186 -0.037,0.88857 0,1.23713 0.0369,0.34857 0.005,1.13347 0,1.74408 -0.0147,2.11981 -0.024,4.55065 0,5.35936 0.013,0.44725 0.0152,1.31116 0,1.91965 -0.015,0.60849 -0.01,1.51743 0,2.01965 0.041,2.04721 -0.037,3.18826 0,3.96255 0.0212,0.44883 0.02,1.313267 0,1.920817 -0.0203,0.60755 -0.004,1.5599 0,2.11654 0.004,0.55663 0.007,1.51145 0,2.12157 -0.007,0.61012 -0.0334,1.47821 0,1.92934 0.0335,0.45114 0.0387,1.40529 0,2.12041 -0.14032,2.69576 0.0697,5.48428 0.005,8.19912 0.4276267,0.44823 0.8552533,0.46557 1.28288,0 0.19794,-7.4147 -0.20425,-12.19595 0,-20.177077 0.002,-0.6667 0.0202,-1.48804 0,-1.82547 -0.0202,-0.33743 0.003,-1.15983 0,-1.8274 -0.003,-0.66759 0.0192,-1.53536 0,-1.92818 -0.0199,-0.39283 -0.0248,-1.84717 0,-3.23197 0.0248,-1.38481 0.0588,-2.98178 0,-3.54901 -0.0589,-0.56724 -0.0416,-1.57037 0,-2.22932 0.0416,-0.65896 -0.0584,-1.925523 -0.0129,-2.814559 0.0784,-1.527512 0.12726,-1.695987 0.88716,-3.062216 0.44227,-0.795166 0.91217,-1.606984 1.04411,-1.803767 0.13196,-0.196786 0.42954,-0.730266 0.66159,-1.185586 0.23206,-0.455313 0.49915,-0.903921 0.59339,-0.996837 0.0942,-0.09291 0.26023,-0.379147 0.36896,-0.636008 0.10876,-0.256858 0.51264,-1.087898 0.89723,-1.847174 0.38457,-0.759285 0.87725,-1.846471 1.0949,-2.415744 0.21763,-0.569276 0.58202,-1.499271 0.81002,-2.066542 1.36424,-3.393982 2.57923,-7.818586 3.5839,-13.050365 1.02666,-5.749233 1.49281,-10.690342 0.52904,-16.062198 -0.18993,-1.090006 -0.432,-2.137611 -0.53797,-2.327773 -0.10596,-0.19016 -0.27491,-0.6798 -0.37516,-1.0883 -0.10025,-0.40851 -0.70142,-1.49252 -1.33596,-2.40877 -0.86321,-1.24642 -1.53309,-1.94879 -2.66109,-2.78936 -1.24986,-0.93141 -2.20238,-1.49655 -3.83929,-1.5751 -2.37176,-0.45935 -3.73505,-0.41898 -5.69889,0.16898 -1.68554,0.50462 -3.40071,2.05826 -4.47879,4.05673 -0.91688,1.7715 -1.38578,3.73439 -1.3941,5.692291 z"
           style="stroke-width:1" />
        <g
           id="g1453"
           transform="translate(-27.79303,-17.818837)">
          <path
             d="m 30.915944,65.483361 c -0.633777,0.202722 -1.216782,-0.629972 -0.645696,-1.154637 0.917125,-0.842571 2.410817,-0.575313 3.513322,-0.160277 1.101646,0.417858 1.975624,1.275947 2.410718,2.29819 v 0 c 0.334432,0.787728 0.407492,1.659656 0.228456,2.456487 0.05763,-0.814652 -0.147743,-1.626811 -0.556075,-2.28863 v 0 c -0.528281,-0.857949 -1.407385,-1.463009 -2.327906,-1.656745 v 0 c -0.919662,-0.196558 -1.790631,0.239415 -2.622857,0.505623 z"
             id="path1743"
             style="fill-rule:evenodd;stroke:none;stroke-width:0.26458332" />
          <path
             style="fill-rule:evenodd;stroke:none;stroke-width:0.26458332"
             id="path1449"
             d="m 42.343484,65.483362 c 0.633777,0.202721 1.216782,-0.629972 0.645696,-1.154637 -0.917125,-0.842571 -2.410817,-0.575313 -3.513322,-0.160277 -1.101646,0.417858 -1.975624,1.275947 -2.410718,2.29819 v 0 c -0.334432,0.787728 -0.407492,1.659656 -0.228456,2.456487 -0.05763,-0.814652 0.147743,-1.626811 0.556075,-2.28863 v 0 c 0.528281,-0.857949 1.407385,-1.463009 2.327906,-1.656745 v 0 c 0.919662,-0.196558 1.790631,0.239415 2.622857,0.505623 z" />
        </g>
        <g
           id="g1584"
           transform="translate(-27.640612,-17.818837)">
          <path
             id="path1489"
             d="m 42.557442,73.090056 c 0.783552,0.735209 0.822556,1.961058 0.08732,2.744603 -0.735209,0.78356 -1.961051,0.822571 -2.744611,0.08744 -0.783552,-0.735209 -0.829448,-1.967503 -0.09428,-2.751056 0.735209,-0.78356 1.967914,-0.816126 2.751482,-0.08094 z"
             style="fill-opacity:1;fill-rule:evenodd;stroke:none;stroke-width:0.26458332" />
          <path
             id="path1487"
             d="m 42.00937,77.927357 c 0.587655,0.55141 0.617112,1.477454 0.06574,2.065124 -0.551395,0.587655 -1.477455,0.617113 -2.065102,0.06574 -0.587678,-0.55141 -0.610227,-1.471025 -0.05882,-2.058657 0.551418,-0.587685 1.4706,-0.623557 2.058247,-0.0722 z"
             style="fill-opacity:1;fill-rule:evenodd;stroke:none;stroke-width:0.26458332" />
          <path
             id="path1485"
             d="m 41.16061,81.51378 c 0.440755,0.413547 0.462726,1.104767 0.04925,1.545513 -0.413561,0.440747 -1.104766,0.462711 -1.545513,0.04925 -0.440747,-0.413561 -0.462726,-1.104774 -0.04925,-1.545512 0.413539,-0.440748 1.104766,-0.462727 1.545498,-0.04925 z"
             style="fill-opacity:1;fill-rule:evenodd;stroke:none;stroke-width:0.26458332" />
          <path
             id="path1773"
             d="m 40.259172,84.119768 c 0.330562,0.310171 0.347115,0.828544 0.03694,1.159144 -0.310171,0.330555 -0.82859,0.347016 -1.159129,0.03694 -0.33057,-0.310163 -0.347016,-0.82859 -0.03694,-1.159129 0.310171,-0.33057 0.828537,-0.347122 1.159129,-0.03694 z"
             style="fill-opacity:1;fill-rule:evenodd;stroke:none;stroke-width:0.26458332" />
        </g>
        <g
           id="g1588"
           transform="translate(-27.640612,-17.818837)">
          <path
             d="m 30.561627,51.921965 c -0.433035,0.558724 -0.331575,1.359208 0.227163,1.792235 0.558725,0.433039 1.359205,0.33159 1.792248,-0.227115 0.433034,-0.558724 0.335386,-1.364108 -0.223319,-1.79715 -0.558725,-0.43304 -1.362996,-0.326683 -1.796051,0.231973 z m 0.283334,3.177412 c -0.324769,0.419044 -0.248119,1.023754 0.170902,1.348532 0.419035,0.324775 1.023755,0.248123 1.34853,-0.170851 0.324784,-0.419047 0.24431,-1.018865 -0.174727,-1.34362 -0.419052,-0.324783 -1.019966,-0.25301 -1.344736,0.165994 z m 1.188172,2.435093 c -0.243587,0.314277 -0.186363,0.765644 0.12787,1.009238 0.314285,0.243575 0.765641,0.186348 1.009233,-0.127869 0.24358,-0.314287 0.186361,-0.765654 -0.127871,-1.009238 -0.31427,-0.243578 -0.765643,-0.186358 -1.009223,0.127868 z m 1.850156,1.20644 c -0.182686,0.235715 -0.13982,0.574226 0.0959,0.756936 0.235714,0.182681 0.57424,0.139752 0.756921,-0.0959 0.182691,-0.235715 0.139751,-0.574244 -0.0959,-0.756925 -0.235716,-0.182692 -0.574217,-0.139827 -0.756921,0.0959 z"
             id="path1773-9"
             style="fill-opacity:1;fill-rule:evenodd;stroke:none;stroke-width:0.26458332" />
          <path
             style="fill-opacity:1;fill-rule:evenodd;stroke:none;stroke-width:0.26458332"
             id="path1536"
             d="m 32.713506,49.196823 c 0.48369,-0.515495 1.29017,-0.541155 1.80566,-0.05745 0.5155,0.48369 0.54117,1.290165 0.0575,1.805665 -0.48369,0.515495 -1.29441,0.54569 -1.80991,0.06202 -0.5155,-0.48369 -0.53692,-1.29468 -0.0533,-1.810185 z m 3.18244,-0.219765 c 0.36277,-0.386615 0.97201,-0.405995 1.35863,-0.04325 0.38662,0.36276 0.406,0.97201 0.0433,1.35862 -0.36277,0.38663 -0.96778,0.401465 -1.35438,0.0387 -0.38663,-0.362775 -0.41023,-0.9675 -0.0475,-1.35411 z m 2.59162,0.79053 c 0.27207,-0.28997 0.72682,-0.304425 1.01679,-0.0324 0.28996,0.27208 0.30441,0.72682 0.0324,1.016785 -0.27208,0.289965 -0.72683,0.304425 -1.01679,0.0324 -0.28996,-0.272065 -0.30442,-0.72682 -0.0324,-1.016775 z m 1.48233,1.63746 c 0.20406,-0.217475 0.5451,-0.228365 0.7626,-0.0243 0.21747,0.20406 0.2283,0.545125 0.0243,0.762585 -0.20406,0.21748 -0.54513,0.2283 -0.76259,0.0243 -0.21748,-0.20406 -0.22837,-0.54509 -0.0243,-0.762585 z" />
        </g>
        <path
           d="m 23.006405,27.422349 c -0.361064,-0.65551 1.486167,-1.39083 1.898041,-0.63127 1.726706,3.184341 0.926854,6.474971 -0.247459,9.495981 0,0 0,0 0,0 -0.428747,1.0984 -0.975066,2.11695 -1.409462,3.14263 -0.429281,1.02589 -0.765995,2.07207 -0.746429,3.129811 0.02434,1.868622 1.221737,3.774628 3.190766,4.912524 -2.097873,-0.973162 -3.624905,-2.823189 -3.908623,-4.875088 -0.154252,-1.154277 0.05659,-2.318627 0.383431,-3.421977 0.321742,-1.10359 0.742085,-2.16319 1.01037,-3.20742 v 0 c 0.740241,-2.8642 1.130356,-6.18323 -0.170635,-8.545191 z"
           id="path3215"
           style="fill-rule:evenodd;stroke:none;stroke-width:0.26458332" />
        <path
           d="m 18.508333,28.520856 c -1.644514,-0.536539 0.591024,-3.512607 2.836464,-0.867951 1.371027,1.61478 -0.0155,6.471947 -0.0155,6.471947 0.351164,-3.197687 -1.891704,-5.300821 -2.82096,-5.603996 z"
           id="path3168"
           style="fill-rule:evenodd;stroke:none;stroke-width:0.26458332" />
        <path
           style="opacity:1;fill-opacity:1;stroke:none;stroke-width:0.26458332;stroke-linecap:round;stroke-linejoin:round;stroke-miterlimit:4;stroke-dasharray:none;stroke-opacity:1"
           d="m 3.523299,50.740057 c -0.1118825,-0.0039 -0.2300898,0.01497 -0.3007566,0.04082 -0.061131,0.02238 -0.177355,0.100901 -0.267684,0.191719 -0.090329,0.09082 -0.1545473,0.200007 -0.1617472,0.241848 -0.026981,0.156766 0.012094,0.339349 0.1033529,0.439767 0.126165,0.138819 0.2304164,0.219789 0.3322793,0.25373 0.1018675,0.03394 0.213836,0.03015 0.3922242,-0.03514 0.080703,-0.02953 0.1148435,-0.05208 0.1503783,-0.08785 0.035536,-0.03577 0.074353,-0.09162 0.1369425,-0.172083 0.093865,-0.120687 0.1079556,-0.25314 0.1173057,-0.43925 0.00591,-0.116957 -0.1059937,-0.275741 -0.2402954,-0.36897 -0.043788,-0.03041 -0.1501169,-0.06069 -0.2619997,-0.06459 z m 1.2655558,0 c -0.111888,0.0039 -0.2156296,0.03421 -0.2594155,0.06459 -0.1302633,0.09042 -0.2335456,0.247928 -0.2402953,0.382405 -0.0092,0.182163 0.014327,0.324507 0.073897,0.432015 0.059569,0.10751 0.1547323,0.190262 0.3281455,0.253732 0.084345,0.0308 0.1074217,0.03245 0.1410767,0.02946 0.033655,-0.003 0.093357,-0.01921 0.1989542,-0.03152 0.1519346,-0.01773 0.2581243,-0.102113 0.3948078,-0.226343 0.087193,-0.08069 0.1232524,-0.269325 0.095602,-0.429948 -0.0072,-0.04185 -0.074007,-0.151016 -0.1643311,-0.241848 -0.090324,-0.09083 -0.204497,-0.169349 -0.2656168,-0.191719 -0.070676,-0.02585 -0.1909358,-0.04472 -0.3028241,-0.04082 z m -2.3931354,0.98702 c -0.041605,-7.94e-4 -0.083606,0.0019 -0.1240235,0.0088 -0.041851,0.0072 -0.1535935,0.07194 -0.2444295,0.162264 -0.090836,0.09032 -0.1688368,0.206563 -0.1912028,0.267684 -0.02588,0.07067 -0.045181,0.190945 -0.041341,0.302824 0.00384,0.111879 0.034204,0.215635 0.064596,0.259416 0.090423,0.13027 0.2484424,0.233495 0.3829224,0.240294 0.1821632,0.0092 0.3239801,-0.01431 0.4314982,-0.0739 0.1075182,-0.05957 0.1902603,-0.154739 0.2537312,-0.328147 a 0.13230489,0.13230489 0 0 1 0.00414,-0.0098 c 0.024908,-0.07085 0.028161,-0.09943 0.025321,-0.130741 -0.00305,-0.03365 -0.01869,-0.09387 -0.031006,-0.199472 -0.017732,-0.15194 -0.1005674,-0.257604 -0.2247927,-0.39429 -0.060063,-0.06638 -0.180593,-0.102643 -0.3054076,-0.104902 z m 3.5263995,0.0011 c -0.1221052,0.0045 -0.2435291,0.04473 -0.3188435,0.113172 -0.1388057,0.126162 -0.2197931,0.228349 -0.2537312,0.330211 -0.033938,0.101865 -0.030149,0.216421 0.03514,0.394809 0.029538,0.0807 0.052077,0.114839 0.08785,0.150378 0.035773,0.03554 0.09368,0.07383 0.1741495,0.136427 0.1260425,0.09803 0.2543874,0.123738 0.4237466,0.115237 0.1345269,-0.0068 0.2925085,-0.107977 0.3829225,-0.238228 0.030394,-0.04379 0.060229,-0.149593 0.064079,-0.261483 0.00385,-0.111889 -0.014962,-0.232153 -0.040824,-0.302823 -0.022373,-0.06113 -0.1003779,-0.175297 -0.191203,-0.265618 -0.090825,-0.09032 -0.2005145,-0.157131 -0.2423623,-0.16433 -0.039191,-0.0067 -0.080221,-0.0092 -0.1209231,-0.0078 z m -3.6938312,1.50426 c -0.1175857,-0.0059 -0.2751667,0.104056 -0.3689697,0.238228 -0.030659,0.04385 -0.060526,0.148273 -0.064596,0.259417 -0.00407,0.11114 0.013664,0.231333 0.039274,0.302823 0.021669,0.0605 0.1000808,0.174757 0.1912028,0.265618 0.091122,0.09086 0.2025435,0.15693 0.2444295,0.16433 0.1563936,0.02769 0.3390906,-0.01109 0.4392496,-0.101804 0.1392057,-0.126084 0.2204521,-0.227605 0.2542482,-0.328144 0.033796,-0.100539 0.030614,-0.213468 -0.03359,-0.392739 -0.028814,-0.08046 -0.05359,-0.115682 -0.089917,-0.15193 -0.036327,-0.03626 -0.091274,-0.07405 -0.1715659,-0.136943 -0.1203028,-0.0942 -0.2541602,-0.109556 -0.4397655,-0.118856 z m 3.7129516,0.0011 c -0.1218205,0.0056 -0.2221976,0.03025 -0.3028238,0.07493 -0.1075021,0.05957 -0.1902584,0.154728 -0.2537315,0.328144 -0.030797,0.08435 -0.032505,0.106899 -0.029456,0.14056 0.00305,0.03366 0.019206,0.09387 0.031523,0.199472 0.018476,0.158303 0.091707,0.271034 0.2165242,0.384471 0.100416,0.09125 0.2830269,0.130289 0.4397666,0.103354 0.041843,-0.0072 0.1515374,-0.07142 0.2423623,-0.161747 0.090825,-0.09033 0.168833,-0.204486 0.191203,-0.265616 0.025866,-0.07067 0.044674,-0.190936 0.040824,-0.302826 -0.00385,-0.111887 -0.033683,-0.21821 -0.064079,-0.261998 -0.09042,-0.130257 -0.2484557,-0.231429 -0.3829225,-0.238228 -0.045542,-0.0024 -0.088584,-0.0024 -0.129191,-5.3e-4 z m -1.0309447,1.044338 c -0.060491,0.0034 -0.1306991,0.01984 -0.2191081,0.05219 -0.080697,0.02954 -0.1148424,0.05207 -0.1503786,0.08785 -0.035536,0.03578 -0.073833,0.0911 -0.1364257,0.171566 -0.09803,0.12604 -0.1237483,0.256453 -0.1152382,0.425813 0.00679,0.134527 0.1100428,0.292502 0.2402953,0.382923 0.04379,0.03039 0.1475283,0.05863 0.2594155,0.06253 0.1118875,0.0039 0.232156,-0.01342 0.3028241,-0.03927 0.061123,-0.02238 0.1752947,-0.100372 0.2656168,-0.191203 0.090322,-0.09083 0.157131,-0.202063 0.1643311,-0.243912 0.027779,-0.161401 -0.00747,-0.34984 -0.095602,-0.429948 -0.1436957,-0.130593 -0.2530134,-0.216701 -0.3539834,-0.253732 -0.050485,-0.01852 -0.101256,-0.02818 -0.1617472,-0.02482 z m -1.4335043,0.02066 c -0.032704,0.0028 -0.090211,0.01873 -0.1953368,0.03152 -0.151724,0.01844 -0.2571332,0.101653 -0.3948081,0.226343 -0.08745,0.07915 -0.1221102,0.27033 -0.093534,0.431496 0.00742,0.04192 0.072961,0.1533 0.1638142,0.24443 0.090853,0.09113 0.2071798,0.169535 0.2676839,0.191204 0.071503,0.02561 0.191678,0.04337 0.3028239,0.03928 0.1111459,-0.0041 0.2140264,-0.03395 0.2578655,-0.0646 0.1341776,-0.09381 0.2441382,-0.251338 0.2382282,-0.368969 -0.00956,-0.189349 -0.034599,-0.341397 -0.091984,-0.451136 -0.057385,-0.109738 -0.1420947,-0.188476 -0.3141927,-0.250116 -0.085182,-0.0305 -0.1078558,-0.03225 -0.1405599,-0.02945 z"
           id="path3175" />
        <path
           style="stroke-width:0.99999994"
           d="m 21.440955,116.26793 c 0.77817,-1.07331 1.1462,-2.95372 0.829553,-4.23844 l -3.17e-4,-7e-5 c -0.271229,-1.10016 -0.552934,-1.34494 -1.836051,-1.59546 -0.915825,-0.17881 -1.898647,0.23367 -2.018371,0.84688 -0.136886,0.70111 0.09413,1.06747 0.754626,1.19642 0.567403,0.11078 0.673399,0.0566 0.646849,-0.33146 -0.08643,-1.26294 1.179954,-0.35095 1.315894,0.94766 0.122513,1.17027 -0.401778,2.21097 -1.573796,3.124 l -0.822788,0.64099 0.293239,-0.72662 0.293555,-0.72654 -0.880481,0.42241 c -1.198744,0.57502 -1.96754,0.57486 -2.843792,-4.1e-4 -1.992712,-1.30819 -2.777967,-6.29465 -1.922925,-12.209 0.380506,-2.63193 1.952426,-7.781847 3.39766,-11.130725 0.350932,-0.813174 0.85032,-1.975768 1.109569,-2.583473 0.259249,-0.607706 0.548816,-1.034417 0.64358,-0.948451 0.381738,0.346278 0.632427,-0.03971 0.564133,-0.868529 -0.04952,-0.601012 0.08581,-1.238421 0.454798,-2.14234 1.028564,-2.519911 0.951049,-2.386607 1.111372,-1.913452 0.152029,0.44867 0.769347,0.701328 0.839205,0.343523 0.02252,-0.11536 0.0284,-0.750307 0.01324,-1.411127 -0.02096,-0.913435 0.132709,-1.656801 0.640501,-3.10022 l 0.667796,-1.898377 0.43412,0.589562 c 0.560872,0.761832 0.79553,0.586408 0.693123,-0.517895 -0.04504,-0.485644 -0.132635,-1.456099 -0.194585,-2.156907 -0.06905,-0.781172 0.06228,-2.173443 0.339818,-3.597921 0.959584,-4.924797 0.495192,-10.47328 -1.004258,-11.997722 -0.2299,-0.233722 -0.741486,-0.48799 -1.136852,-0.565182 -1.544783,-0.301604 -3.018382,1.952059 -2.124423,3.249149 0.650552,0.94394 2.171914,0.862915 2.364985,-0.125975 0.121688,-0.62327 -0.350757,-1.032369 -0.871747,-0.754975 -0.409979,0.218297 -0.617365,-0.0083 -0.510236,-0.557033 0.120657,-0.617994 0.844879,-0.736424 1.480076,-0.242159 1.381235,1.074768 1.620844,9.82268 0.312222,11.39763 -0.356919,0.429553 -1.002676,0.385037 -1.331293,-0.09177 -0.170216,-0.246968 -0.238279,-0.217273 -0.306784,0.133602 -0.114037,0.584084 0.450835,1.314487 1.117504,1.444648 0.523441,0.102197 0.523523,0.103435 -0.06358,2.353313 -0.834604,3.198281 -1.818139,4.422462 -2.619199,3.260172 -0.17021,-0.246981 -0.235945,-0.23093 -0.295097,0.07204 -0.11832,0.606019 0.186115,1.326648 0.593873,1.406259 0.316622,0.06182 0.290148,0.130518 -0.184093,0.479388 -0.834807,0.614159 -1.015585,1.061356 -0.812654,2.009946 0.170864,0.798723 0.09739,1.074985 -0.996069,3.743251 -0.649318,1.584448 -1.334145,3.005555 -1.521512,3.157906 -0.187359,0.152356 -0.437418,0.438216 -0.555826,0.635522 -0.247436,0.4123 -0.938465,0.34654 -1.259976,-0.119963 -0.170221,-0.246979 -0.235627,-0.230862 -0.294778,0.0721 -0.11832,0.606023 0.185799,1.326582 0.593555,1.406192 0.296688,0.05793 0.240031,0.163322 -0.288034,0.534784 -0.504345,0.354785 -0.697212,0.691478 -0.826963,1.444433 -0.200383,1.163017 -0.09253,1.396657 0.49953,1.082123 0.400456,-0.212743 0.413714,-0.16772 0.152024,0.512438 -2.700798,7.019575 -3.266128,14.851545 -1.357998,18.817985 0.343167,0.71334 0.912398,1.44548 1.369477,1.76204 2.668298,1.62262 5.907807,0.7443 6.928665,-0.53416 z"
           id="path4529" />
      </g>
      <g
         transform="rotate(-3.7697463,51.818878,481.32308)"
         id="g5969">
        <path
           style="opacity:1;fill-opacity:1;stroke:none;stroke-width:0.26458332;stroke-linecap:butt;stroke-linejoin:miter;stroke-miterlimit:4;stroke-dasharray:none;stroke-opacity:1;paint-order:normal"
           d="m 53.917197,58.556149 c 0.302828,0.177094 0.524555,0.175802 0.872216,0.12897 0.347661,-0.04683 0.635175,-0.231835 0.865276,-0.496624 0.230101,-0.264789 0.315833,-0.643153 0.269001,-0.990814 -0.04683,-0.347661 -0.368201,-0.748065 -0.671029,-0.925158 -0.302828,-0.177094 -0.789664,-0.274514 -1.116881,-0.148017 -0.327218,0.126497 -0.590782,0.3778 -0.732713,0.698625 -0.141931,0.320825 -0.150601,0.684891 -0.0241,1.012109 0.126497,0.327217 0.235407,0.543816 0.538234,0.720909 0,0 0,0 0,0"
           id="path4055" />
        <path
           style="opacity:1;fill-opacity:1;stroke:none;stroke-width:0.26458332;stroke-linecap:butt;stroke-linejoin:miter;stroke-miterlimit:4;stroke-dasharray:none;stroke-opacity:1;paint-order:normal"
           d="m 46.632786,105.66545 c 0.221392,0.47723 0.906877,1.102 1.427193,1.17945 0.520315,0.0774 1.112568,-0.0346 1.4999,-0.39053 0.387332,-0.35594 0.676529,-0.75898 0.75398,-1.27929 0.07745,-0.52032 0.139122,-0.70192 -0.08227,-1.17915 -0.461026,-0.99378 -1.422263,-1.29772 -2.482727,-1.02239 -1.060464,0.27534 -1.577096,1.69813 -1.116074,2.69191 0,0 0,0 0,0"
           id="path4057" />
        <path
           d="m 56.0175,60.924057 c 0.165034,0.32752 0.325411,0.364598 0.643812,0.546381 0.318401,0.181785 0.695974,0.229638 1.049658,0.133036 0.353684,-0.0966 0.654507,-0.329749 0.836291,-0.648151 0.181783,-0.3184 0.105104,-0.948266 -0.05993,-1.275786 -0.16592,-0.32928 -0.549244,-0.703635 -0.907603,-0.773295 -0.35836,-0.06966 -0.754992,-0.0078 -1.046571,0.217838 -0.29158,0.225676 -0.505029,0.517342 -0.57469,0.875702 -0.06966,0.358358 -0.106887,0.594996 0.05903,0.924275 0,0 0,0 0,0"
           style="opacity:1;fill-opacity:1;stroke:none;stroke-width:0.26458332;stroke-linecap:butt;stroke-linejoin:miter;stroke-miterlimit:4;stroke-dasharray:none;stroke-opacity:1;paint-order:normal"
           id="path4059" />
        <path
           d="m 56.576353,64.310977 c 0.0016,0.382673 0.12811,0.663057 0.381471,0.949874 0.253361,0.286818 0.602049,0.438592 0.982059,0.483982 0.38001,0.04539 0.767869,-0.104473 1.054686,-0.357835 0.286817,-0.253361 0.469106,-0.705324 0.467518,-1.087997 -0.0016,-0.386613 -0.171447,-0.848975 -0.460298,-1.094803 -0.288852,-0.245826 -0.665464,-0.370398 -1.050809,-0.339389 -0.385345,0.03101 -0.737192,0.214196 -0.983019,0.503047 -0.245827,0.288851 -0.393213,0.556508 -0.391608,0.943121 0,0 0,0 0,0"
           style="opacity:1;fill-opacity:1;stroke:none;stroke-width:0.26458332;stroke-linecap:butt;stroke-linejoin:miter;stroke-miterlimit:4;stroke-dasharray:none;stroke-opacity:1;paint-order:normal"
           id="path4061" />
        <path
           d="m 55.991959,68.147782 c -0.09045,0.388219 -0.02297,0.796467 0.18759,1.134933 0.210559,0.338467 0.532598,0.549693 0.914402,0.664376 0.381805,0.114682 0.81723,0.02846 1.155697,-0.182097 0.338465,-0.210557 0.579425,-0.546947 0.66987,-0.935166 0.09179,-0.393976 0.04689,-0.878565 -0.180974,-1.199548 -0.227864,-0.320983 -0.575408,-0.54419 -0.97429,-0.611866 -0.398881,-0.06768 -0.800598,0.02841 -1.121581,0.256272 -0.320983,0.227863 -0.558927,0.479121 -0.650714,0.873096 0,0 0,0 0,0"
           style="opacity:1;fill-opacity:1;stroke:none;stroke-width:0.26458332;stroke-linecap:butt;stroke-linejoin:miter;stroke-miterlimit:4;stroke-dasharray:none;stroke-opacity:1;paint-order:normal"
           id="path4063" />
        <path
           d="m 54.756097,72.143974 c -0.137362,0.391212 -0.113688,0.820968 0.06581,1.194726 0.1795,0.373757 0.494399,0.640003 0.879441,0.793796 0.385042,0.153794 0.832862,0.118153 1.206619,-0.06135 0.373757,-0.179501 0.660901,-0.500123 0.798261,-0.891336 0.139972,-0.398649 0.137993,-0.885402 -0.05527,-1.244607 -0.193262,-0.359206 -0.522322,-0.634965 -0.926948,-0.756503 -0.404626,-0.121537 -0.831174,-0.07274 -1.19038,0.120522 -0.359205,0.193262 -0.637564,0.4461 -0.777536,0.844749 0,0 0,0 0,0"
           style="opacity:1;fill-opacity:1;stroke:none;stroke-width:0.26458332;stroke-linecap:butt;stroke-linejoin:miter;stroke-miterlimit:4;stroke-dasharray:none;stroke-opacity:1;paint-order:normal"
           id="path4065" />
        <path
           d="m 53.114503,76.232252 c -0.159708,0.399851 -0.154036,0.84677 0.01577,1.242439 0.169806,0.395668 0.487148,0.697948 0.88399,0.865071 0.396842,0.167124 0.85247,0.156348 1.248138,-0.01346 0.395669,-0.169808 0.707676,-0.48984 0.867384,-0.889691 0.163363,-0.409003 0.150728,-0.854472 -0.01577,-1.242437 -0.1665,-0.387965 -0.480685,-0.70402 -0.889687,-0.867383 -0.409003,-0.163364 -0.854473,-0.150729 -1.242437,0.01577 -0.387966,0.166501 -0.704021,0.480685 -0.867385,0.889688 0,0 0,0 0,0"
           style="opacity:1;fill-opacity:1;stroke:none;stroke-width:0.26458332;stroke-linecap:butt;stroke-linejoin:miter;stroke-miterlimit:4;stroke-dasharray:none;stroke-opacity:1;paint-order:normal"
           id="path4067" />
        <path
           d="m 51.309908,80.423296 c -0.173314,0.41154 -0.186606,0.898555 -0.01112,1.309164 0.175488,0.410608 0.506903,0.734686 0.921337,0.900941 0.414434,0.166254 0.877937,0.161066 1.288545,-0.01442 0.410609,-0.175489 0.731342,-0.477187 0.904654,-0.888728 0.177902,-0.422437 0.172247,-0.884386 0.0076,-1.288621 -0.164655,-0.404236 -0.483387,-0.73866 -0.905824,-0.916562 -0.422438,-0.177903 -0.884387,-0.17225 -1.288622,-0.0076 -0.404236,0.164656 -0.738661,0.483386 -0.916564,0.905823 0,0 0,0 0,0"
           style="opacity:1;fill-opacity:1;stroke:none;stroke-width:0.26458332;stroke-linecap:butt;stroke-linejoin:miter;stroke-miterlimit:4;stroke-dasharray:none;stroke-opacity:1;paint-order:normal"
           id="path4069" />
        <path
           d="m 49.508525,84.893967 c -0.152559,0.436598 -0.12543,0.915917 0.07541,1.332513 0.200847,0.416596 0.558959,0.736344 0.995558,0.888902 0.436598,0.152558 0.915917,0.125429 1.332514,-0.07542 0.416595,-0.200847 0.736342,-0.558959 0.888899,-0.995558 0.157108,-0.449622 0.122133,-0.908058 -0.06922,-1.31614 -0.191353,-0.408082 -0.537986,-0.73758 -0.98586,-0.899511 -0.447874,-0.161932 -0.925077,-0.130296 -1.333158,0.06106 -0.408083,0.191353 -0.747038,0.554535 -0.904148,1.004156 0,0 0,0 0,0"
           style="opacity:1;fill-opacity:1;stroke:none;stroke-width:0.26458332;stroke-linecap:butt;stroke-linejoin:miter;stroke-miterlimit:4;stroke-dasharray:none;stroke-opacity:1;paint-order:normal"
           id="path4071" />
        <path
           d="m 47.866765,89.455546 c -0.154283,0.452861 -0.122349,0.948463 0.08878,1.377779 0.211127,0.429316 0.586288,0.775522 1.044292,0.913799 0.458005,0.138278 0.941184,0.120008 1.3705,-0.09112 0.429315,-0.211128 0.757176,-0.584153 0.911458,-1.037015 0.159366,-0.467785 0.116427,-0.960496 -0.08878,-1.377775 -0.205207,-0.417279 -0.569225,-0.752091 -1.03701,-0.911458 -0.467786,-0.159366 -0.960497,-0.116429 -1.377776,0.08878 -0.417279,0.205207 -0.752091,0.569224 -0.911459,1.037009 0,0 0,0 0,0"
           style="opacity:1;fill-opacity:1;stroke:none;stroke-width:0.26458332;stroke-linecap:butt;stroke-linejoin:miter;stroke-miterlimit:4;stroke-dasharray:none;stroke-opacity:1;paint-order:normal"
           id="path4073" />
        <path
           d="m 46.343953,94.310925 c -0.124196,0.478496 -0.03685,1.081024 0.235844,1.493318 0.272697,0.412296 0.69801,0.699367 1.182372,0.798075 0.484361,0.09871 0.988096,9.69e-4 1.400388,-0.271732 0.412294,-0.272699 0.665533,-0.604611 0.789727,-1.083107 0.12865,-0.495663 0.04557,-0.999732 -0.197309,-1.41289 -0.242881,-0.413157 -0.636602,-0.708258 -1.126853,-0.856271 -0.490251,-0.148013 -1.011461,-0.04885 -1.424618,0.194028 -0.413159,0.242881 -0.730899,0.642917 -0.859551,1.138579 0,0 0,0 0,0"
           style="opacity:1;fill-opacity:1;stroke:none;stroke-width:0.26458332;stroke-linecap:butt;stroke-linejoin:miter;stroke-miterlimit:4;stroke-dasharray:none;stroke-opacity:1;paint-order:normal"
           id="path4075" />
        <path
           d="m 45.501362,99.757911 c -0.0087,0.510219 0.206313,1.211409 0.602514,1.532919 0.396204,0.32152 0.903901,0.47247 1.411405,0.41966 0.507505,-0.0528 0.973243,-0.30506 1.294759,-0.70127 0.321516,-0.3962 0.53011,-0.67563 0.538789,-1.185844 0.009,-0.52991 -0.195134,-0.8197 -0.495182,-1.211441 -0.300047,-0.391741 -0.749145,-0.667668 -1.274463,-0.737296 -0.525319,-0.06963 -1.030792,0.07977 -1.422532,0.379823 -0.391741,0.300048 -0.646273,0.973539 -0.65529,1.503449 0,0 0,0 0,0"
           style="opacity:1;fill-opacity:1;stroke:none;stroke-width:0.26458332;stroke-linecap:butt;stroke-linejoin:miter;stroke-miterlimit:4;stroke-dasharray:none;stroke-opacity:1;paint-order:normal"
           id="path4077" />
      </g>
    </g>
    <g
       id="g4367"
       transform="matrix(0,1,1,0,3.8055129e-7,-1.1927369e-7)">
      <g
         id="g4339">
        <path
           style="stroke-width:1"
           d="m 1.03e-4,36.688504 c -0.009,2.218952 0.57244,4.431536 1.76385,6.351552 1.7344,2.214951 4.94476,3.032008 7.51853,2.604103 1.30835,-0.320399 2.80923,-1.316216 3.66878,-2.434348 1.07589,-1.409789 0.60492,-4.852458 -0.38023,-6.644941 -1.02312,-1.744298 -2.53009,-2.425146 -3.98463,-1.800666 -1.46326,0.628221 -2.03541,1.994376 -1.56812,3.744345 0.37161,1.391325 0.64313,1.441508 0.78445,0.144953 0.1839,-1.687215 1.09638,-2.023227 2.10529,-0.775536 1.64578,2.035268 0.46696,5.396617 -2.10103,5.990332 -0.77218,0.17853 -1.35762,0.155762 -2.5855,-0.100768 -1.4036,-0.29319 -1.67956,-0.4189 -2.38513,-1.084818 -0.43883,-0.414165 -0.91127,-1.076439 -1.04954,-1.472002 -0.84606,-2.420221 -1.02604,-4.720264 -0.50036,-6.395734 0.46846,-1.493142 1.64698,-3.699862 2.33397,-4.370662 1.75433,-1.67094 4.08608,-1.92373 6.531,-1.51735 1.69791,0.32875 2.73369,0.77332 3.8013,1.63207 0.62099,0.49949 2.48117,3.37261 2.69907,4.16874 0.15881,0.58019 0.69368,2.338305 1.04529,3.436222 0.14831,0.463102 0.57315,4.228757 0.57089,5.062869 0,0.277785 0.0554,1.243576 0.12479,2.146381 0.39739,5.169623 -2.27673,17.149919 -5.18959,23.249743 -0.29155,0.610543 -0.7269,1.617796 -0.96739,2.238236 -0.24048,0.620435 -0.7186,1.664762 -1.06233,2.320789 -0.34374,0.65602 -0.72537,1.423439 -0.8484,1.705322 -0.31474,0.721144 -0.55691,0.582682 -0.53486,-0.305796 0.0369,-1.487992 0.005,-3.607459 -0.0725,-4.77374 -0.0436,-0.653028 -0.0378,-1.400808 0.0128,-1.661914 0.0505,-0.261104 0.0815,-0.864509 0.069,-1.341003 -0.0126,-0.476494 -0.0261,-1.367458 -0.0306,-1.979723 -0.008,-1.199494 -0.0169,-1.659202 -0.0876,-4.766765 -0.0587,-2.578856 -0.10478,-3.484479 -0.22246,-4.388878 -0.12899,-0.991261 0.57362,-4.098601 1.10845,-4.902414 0.68298,-1.026517 1.29227,-1.302895 2.40024,-1.088307 0.85191,0.165001 1.02316,0.281754 1.48443,1.009628 0.71654,1.130761 0.56192,1.843179 -0.55388,2.550234 -0.67135,0.425436 -0.795,0.581916 -0.60267,0.763131 0.30553,0.287812 0.31428,0.287923 1.07474,0.01939 0.96321,-0.340155 1.54009,-0.966406 1.72974,-1.878181 0.37362,-1.795837 -0.76623,-3.622931 -2.46571,-3.952083 -1.72375,-0.333863 -3.99117,1.674947 -4.43579,3.929604 -0.18431,0.934575 -0.48555,0.881122 -0.94645,-0.167432 -0.51989,-1.182743 -0.9489,-1.750988 -2.02314,-2.680456 -1.09353,-0.946132 -2.25945,-1.183828 -3.61722,-0.736776 -1.35286,0.445425 -1.94353,1.168408 -2.24288,2.745569 -0.20412,1.075004 -0.17073,1.516086 0.21897,2.909511 0.25267,0.90339 0.70035,2.035558 0.9949,2.515739 0.90036,1.467673 2.15491,4.349777 2.54908,5.855843 0.33509,1.280412 0.33818,1.563171 0.0306,2.734718 -0.18866,0.71864 -0.51816,1.636185 -0.73212,2.03941 -0.21395,0.403235 -0.53603,1.11432 -0.71585,1.579749 -0.17983,0.465435 -0.49244,1.132207 -0.69492,1.48208 -0.99995,1.727831 -1.58099,3.823502 -1.68827,6.090714 -0.0747,1.579421 0.25006,1.325177 0.59725,-0.467414 0.16881,-0.871557 0.4756,-1.926395 0.68174,-2.344043 0.46569,-0.943491 1.38414,-2.28311 1.78788,-2.60798 0.28967,-0.233071 1.3497,-1.448632 2.1363,-2.44985 2.94719,-4.010059 1.01546,-6.905024 -1.44952,-10.454013 -2.55557,-3.70943 -3.16391,-5.063756 -2.89595,-6.447282 0.1319,-0.68103 0.70421,-1.362111 1.72238,-2.049875 0.96951,-0.654892 3.13121,0.545762 4.06525,2.257615 0.97853,1.793407 1.23521,3.12547 1.32008,6.853069 0.0254,1.116612 0.0572,2.395998 0.0705,2.843238 0.0132,0.447247 0.0264,1.268639 0.0294,1.825081 0.003,0.556435 0.0313,1.653241 0.0624,2.43745 0.0311,0.784201 0.0518,1.834382 0.0465,2.333577 -0.005,0.499204 -0.0163,1.452184 -0.024,2.117701 -0.008,0.665522 -0.007,1.665988 0.002,2.223507 0.009,0.557504 0.003,1.466048 -0.0128,2.018869 -0.0395,1.397099 -0.008,3.135176 0.0601,3.314914 0.0313,0.08259 -0.16617,0.605834 -0.43873,1.162721 -0.27254,0.556887 -1.03734,2.180969 -1.69951,3.60908 -0.66218,1.42811 -1.42537,3.00838 -1.69602,3.5118 -0.71262,1.32557 -1.202,2.77689 -2.14406,6.3562 -1.04253,3.96099 -1.21186,4.84792 -1.37782,7.21158 -0.0731,1.041937 -0.18999,2.611067 -0.25929,3.486997 -0.0693,0.87594 -0.11934,2.04871 -0.11162,2.60605 0.007,0.55734 0.009,1.51248 0.003,2.12273 -0.006,0.61026 -0.003,1.56479 0,2.12119 0.003,0.55642 0.002,1.51172 0,2.12274 -0.004,1.02244 0.10462,1.56982 0,4.55825 -0.012,0.34316 -0.009,0.64664 0.0124,0.90615 0.25815,0.2342 0.4804556,0.32502 0.5988,0 0.0151,-0.36275 0.0203,-0.84776 0.0182,-1.50107 -0.004,-1.17703 0.004,-3.09176 0.0167,-4.24161 0.006,-0.49918 0.0109,-1.45288 0.0124,-2.11963 9.9e-4,-0.66677 0.006,-1.66632 0.0112,-2.22119 0.005,-0.55485 -5.9e-4,-1.6476 -0.0128,-2.42814 -0.0272,-1.7461 0.40368,-6.331987 0.75538,-8.039827 0.27797,-1.34985 1.45653,-5.54929 1.77548,-6.32636 0.10567,-0.25746 0.37534,-0.93268 0.59957,-1.50068 1.01449,-2.56993 1.35914,-3.34387 1.8871,-4.24044 0.4146,-0.73438 2.26778,-5.570479 2.0956,-2.03127 -0.0642,0.33186 -0.037,0.88857 0,1.23713 0.0369,0.34857 0.005,1.13347 0,1.74408 -0.0147,2.11981 -0.024,4.55065 0,5.35936 0.013,0.44725 0.0152,1.31116 0,1.91965 -0.015,0.60849 -0.01,1.51743 0,2.01965 0.041,2.04721 -0.037,3.18826 0,3.96255 0.0212,0.44883 0.02,1.313267 0,1.920817 -0.0203,0.60755 -0.004,1.5599 0,2.11654 0.004,0.55663 0.007,1.51145 0,2.12157 -0.007,0.61012 -0.0334,1.47821 0,1.92934 0.0335,0.45114 0.0387,1.40529 0,2.12041 -0.14032,2.69576 0.0697,5.48428 0.005,8.19912 0.4276267,0.44823 0.8552533,0.46557 1.28288,0 0.19794,-7.4147 -0.20425,-12.19595 0,-20.177077 0.002,-0.6667 0.0202,-1.48804 0,-1.82547 -0.0202,-0.33743 0.003,-1.15983 0,-1.8274 -0.003,-0.66759 0.0192,-1.53536 0,-1.92818 -0.0199,-0.39283 -0.0248,-1.84717 0,-3.23197 0.0248,-1.38481 0.0588,-2.98178 0,-3.54901 -0.0589,-0.56724 -0.0416,-1.57037 0,-2.22932 0.0416,-0.65896 -0.0584,-1.925523 -0.0129,-2.814559 0.0784,-1.527512 0.12726,-1.695987 0.88716,-3.062216 0.44227,-0.795166 0.91217,-1.606984 1.04411,-1.803767 0.13196,-0.196786 0.42954,-0.730266 0.66159,-1.185586 0.23206,-0.455313 0.49915,-0.903921 0.59339,-0.996837 0.0942,-0.09291 0.26023,-0.379147 0.36896,-0.636008 0.10876,-0.256858 0.51264,-1.087898 0.89723,-1.847174 0.38457,-0.759285 0.87725,-1.846471 1.0949,-2.415744 0.21763,-0.569276 0.58202,-1.499271 0.81002,-2.066542 1.36424,-3.393982 2.57923,-7.818586 3.5839,-13.050365 1.02666,-5.749233 1.49281,-10.690342 0.52904,-16.062198 -0.18993,-1.090006 -0.432,-2.137611 -0.53797,-2.327773 -0.10596,-0.19016 -0.27491,-0.6798 -0.37516,-1.0883 -0.10025,-0.40851 -0.70142,-1.49252 -1.33596,-2.40877 -0.86321,-1.24642 -1.53309,-1.94879 -2.66109,-2.78936 -1.24986,-0.93141 -2.20238,-1.49655 -3.83929,-1.5751 -2.37176,-0.45935 -3.73505,-0.41898 -5.69889,0.16898 -1.68554,0.50462 -3.40071,2.05826 -4.47879,4.05673 -0.91688,1.7715 -1.38578,3.73439 -1.3941,5.692291 z"
           id="path4307" />
        <g
           transform="translate(-27.79303,-17.818837)"
           id="g4313">
          <path
             style="fill-rule:evenodd;stroke:none;stroke-width:0.26458332"
             id="path4309"
             d="m 30.915944,65.483361 c -0.633777,0.202722 -1.216782,-0.629972 -0.645696,-1.154637 0.917125,-0.842571 2.410817,-0.575313 3.513322,-0.160277 1.101646,0.417858 1.975624,1.275947 2.410718,2.29819 v 0 c 0.334432,0.787728 0.407492,1.659656 0.228456,2.456487 0.05763,-0.814652 -0.147743,-1.626811 -0.556075,-2.28863 v 0 c -0.528281,-0.857949 -1.407385,-1.463009 -2.327906,-1.656745 v 0 c -0.919662,-0.196558 -1.790631,0.239415 -2.622857,0.505623 z" />
          <path
             d="m 42.343484,65.483362 c 0.633777,0.202721 1.216782,-0.629972 0.645696,-1.154637 -0.917125,-0.842571 -2.410817,-0.575313 -3.513322,-0.160277 -1.101646,0.417858 -1.975624,1.275947 -2.410718,2.29819 v 0 c -0.334432,0.787728 -0.407492,1.659656 -0.228456,2.456487 -0.05763,-0.814652 0.147743,-1.626811 0.556075,-2.28863 v 0 c 0.528281,-0.857949 1.407385,-1.463009 2.327906,-1.656745 v 0 c 0.919662,-0.196558 1.790631,0.239415 2.622857,0.505623 z"
             id="path4311"
             style="fill-rule:evenodd;stroke:none;stroke-width:0.26458332" />
        </g>
        <g
           transform="translate(-27.640612,-17.818837)"
           id="g4323">
          <path
             style="fill-opacity:1;fill-rule:evenodd;stroke:none;stroke-width:0.26458332"
             d="m 42.557442,73.090056 c 0.783552,0.735209 0.822556,1.961058 0.08732,2.744603 -0.735209,0.78356 -1.961051,0.822571 -2.744611,0.08744 -0.783552,-0.735209 -0.829448,-1.967503 -0.09428,-2.751056 0.735209,-0.78356 1.967914,-0.816126 2.751482,-0.08094 z"
             id="path4315" />
          <path
             style="fill-opacity:1;fill-rule:evenodd;stroke:none;stroke-width:0.26458332"
             d="m 42.00937,77.927357 c 0.587655,0.55141 0.617112,1.477454 0.06574,2.065124 -0.551395,0.587655 -1.477455,0.617113 -2.065102,0.06574 -0.587678,-0.55141 -0.610227,-1.471025 -0.05882,-2.058657 0.551418,-0.587685 1.4706,-0.623557 2.058247,-0.0722 z"
             id="path4317" />
          <path
             style="fill-opacity:1;fill-rule:evenodd;stroke:none;stroke-width:0.26458332"
             d="m 41.16061,81.51378 c 0.440755,0.413547 0.462726,1.104767 0.04925,1.545513 -0.413561,0.440747 -1.104766,0.462711 -1.545513,0.04925 -0.440747,-0.413561 -0.462726,-1.104774 -0.04925,-1.545512 0.413539,-0.440748 1.104766,-0.462727 1.545498,-0.04925 z"
             id="path4319" />
          <path
             style="fill-opacity:1;fill-rule:evenodd;stroke:none;stroke-width:0.26458332"
             d="m 40.259172,84.119768 c 0.330562,0.310171 0.347115,0.828544 0.03694,1.159144 -0.310171,0.330555 -0.82859,0.347016 -1.159129,0.03694 -0.33057,-0.310163 -0.347016,-0.82859 -0.03694,-1.159129 0.310171,-0.33057 0.828537,-0.347122 1.159129,-0.03694 z"
             id="path4321" />
        </g>
        <g
           transform="translate(-27.640612,-17.818837)"
           id="g4329">
          <path
             style="fill-opacity:1;fill-rule:evenodd;stroke:none;stroke-width:0.26458332"
             id="path4325"
             d="m 30.561627,51.921965 c -0.433035,0.558724 -0.331575,1.359208 0.227163,1.792235 0.558725,0.433039 1.359205,0.33159 1.792248,-0.227115 0.433034,-0.558724 0.335386,-1.364108 -0.223319,-1.79715 -0.558725,-0.43304 -1.362996,-0.326683 -1.796051,0.231973 z m 0.283334,3.177412 c -0.324769,0.419044 -0.248119,1.023754 0.170902,1.348532 0.419035,0.324775 1.023755,0.248123 1.34853,-0.170851 0.324784,-0.419047 0.24431,-1.018865 -0.174727,-1.34362 -0.419052,-0.324783 -1.019966,-0.25301 -1.344736,0.165994 z m 1.188172,2.435093 c -0.243587,0.314277 -0.186363,0.765644 0.12787,1.009238 0.314285,0.243575 0.765641,0.186348 1.009233,-0.127869 0.24358,-0.314287 0.186361,-0.765654 -0.127871,-1.009238 -0.31427,-0.243578 -0.765643,-0.186358 -1.009223,0.127868 z m 1.850156,1.20644 c -0.182686,0.235715 -0.13982,0.574226 0.0959,0.756936 0.235714,0.182681 0.57424,0.139752 0.756921,-0.0959 0.182691,-0.235715 0.139751,-0.574244 -0.0959,-0.756925 -0.235716,-0.182692 -0.574217,-0.139827 -0.756921,0.0959 z" />
          <path
             d="m 32.713506,49.196823 c 0.48369,-0.515495 1.29017,-0.541155 1.80566,-0.05745 0.5155,0.48369 0.54117,1.290165 0.0575,1.805665 -0.48369,0.515495 -1.29441,0.54569 -1.80991,0.06202 -0.5155,-0.48369 -0.53692,-1.29468 -0.0533,-1.810185 z m 3.18244,-0.219765 c 0.36277,-0.386615 0.97201,-0.405995 1.35863,-0.04325 0.38662,0.36276 0.406,0.97201 0.0433,1.35862 -0.36277,0.38663 -0.96778,0.401465 -1.35438,0.0387 -0.38663,-0.362775 -0.41023,-0.9675 -0.0475,-1.35411 z m 2.59162,0.79053 c 0.27207,-0.28997 0.72682,-0.304425 1.01679,-0.0324 0.28996,0.27208 0.30441,0.72682 0.0324,1.016785 -0.27208,0.289965 -0.72683,0.304425 -1.01679,0.0324 -0.28996,-0.272065 -0.30442,-0.72682 -0.0324,-1.016775 z m 1.48233,1.63746 c 0.20406,-0.217475 0.5451,-0.228365 0.7626,-0.0243 0.21747,0.20406 0.2283,0.545125 0.0243,0.762585 -0.20406,0.21748 -0.54513,0.2283 -0.76259,0.0243 -0.21748,-0.20406 -0.22837,-0.54509 -0.0243,-0.762585 z"
             id="path4327"
             style="fill-opacity:1;fill-rule:evenodd;stroke:none;stroke-width:0.26458332" />
        </g>
        <path
           style="fill-rule:evenodd;stroke:none;stroke-width:0.26458332"
           id="path4331"
           d="m 23.006405,27.422349 c -0.361064,-0.65551 1.486167,-1.39083 1.898041,-0.63127 1.726706,3.184341 0.926854,6.474971 -0.247459,9.495981 0,0 0,0 0,0 -0.428747,1.0984 -0.975066,2.11695 -1.409462,3.14263 -0.429281,1.02589 -0.765995,2.07207 -0.746429,3.129811 0.02434,1.868622 1.221737,3.774628 3.190766,4.912524 -2.097873,-0.973162 -3.624905,-2.823189 -3.908623,-4.875088 -0.154252,-1.154277 0.05659,-2.318627 0.383431,-3.421977 0.321742,-1.10359 0.742085,-2.16319 1.01037,-3.20742 v 0 c 0.740241,-2.8642 1.130356,-6.18323 -0.170635,-8.545191 z" />
        <path
           style="fill-rule:evenodd;stroke:none;stroke-width:0.26458332"
           id="path4333"
           d="m 18.508333,28.520856 c -1.644514,-0.536539 0.591024,-3.512607 2.836464,-0.867951 1.371027,1.61478 -0.0155,6.471947 -0.0155,6.471947 0.351164,-3.197687 -1.891704,-5.300821 -2.82096,-5.603996 z" />
        <path
           id="path4335"
           d="m 3.523299,50.740057 c -0.1118825,-0.0039 -0.2300898,0.01497 -0.3007566,0.04082 -0.061131,0.02238 -0.177355,0.100901 -0.267684,0.191719 -0.090329,0.09082 -0.1545473,0.200007 -0.1617472,0.241848 -0.026981,0.156766 0.012094,0.339349 0.1033529,0.439767 0.126165,0.138819 0.2304164,0.219789 0.3322793,0.25373 0.1018675,0.03394 0.213836,0.03015 0.3922242,-0.03514 0.080703,-0.02953 0.1148435,-0.05208 0.1503783,-0.08785 0.035536,-0.03577 0.074353,-0.09162 0.1369425,-0.172083 0.093865,-0.120687 0.1079556,-0.25314 0.1173057,-0.43925 0.00591,-0.116957 -0.1059937,-0.275741 -0.2402954,-0.36897 -0.043788,-0.03041 -0.1501169,-0.06069 -0.2619997,-0.06459 z m 1.2655558,0 c -0.111888,0.0039 -0.2156296,0.03421 -0.2594155,0.06459 -0.1302633,0.09042 -0.2335456,0.247928 -0.2402953,0.382405 -0.0092,0.182163 0.014327,0.324507 0.073897,0.432015 0.059569,0.10751 0.1547323,0.190262 0.3281455,0.253732 0.084345,0.0308 0.1074217,0.03245 0.1410767,0.02946 0.033655,-0.003 0.093357,-0.01921 0.1989542,-0.03152 0.1519346,-0.01773 0.2581243,-0.102113 0.3948078,-0.226343 0.087193,-0.08069 0.1232524,-0.269325 0.095602,-0.429948 -0.0072,-0.04185 -0.074007,-0.151016 -0.1643311,-0.241848 -0.090324,-0.09083 -0.204497,-0.169349 -0.2656168,-0.191719 -0.070676,-0.02585 -0.1909358,-0.04472 -0.3028241,-0.04082 z m -2.3931354,0.98702 c -0.041605,-7.94e-4 -0.083606,0.0019 -0.1240235,0.0088 -0.041851,0.0072 -0.1535935,0.07194 -0.2444295,0.162264 -0.090836,0.09032 -0.1688368,0.206563 -0.1912028,0.267684 -0.02588,0.07067 -0.045181,0.190945 -0.041341,0.302824 0.00384,0.111879 0.034204,0.215635 0.064596,0.259416 0.090423,0.13027 0.2484424,0.233495 0.3829224,0.240294 0.1821632,0.0092 0.3239801,-0.01431 0.4314982,-0.0739 0.1075182,-0.05957 0.1902603,-0.154739 0.2537312,-0.328147 a 0.13230489,0.13230489 0 0 1 0.00414,-0.0098 c 0.024908,-0.07085 0.028161,-0.09943 0.025321,-0.130741 -0.00305,-0.03365 -0.01869,-0.09387 -0.031006,-0.199472 -0.017732,-0.15194 -0.1005674,-0.257604 -0.2247927,-0.39429 -0.060063,-0.06638 -0.180593,-0.102643 -0.3054076,-0.104902 z m 3.5263995,0.0011 c -0.1221052,0.0045 -0.2435291,0.04473 -0.3188435,0.113172 -0.1388057,0.126162 -0.2197931,0.228349 -0.2537312,0.330211 -0.033938,0.101865 -0.030149,0.216421 0.03514,0.394809 0.029538,0.0807 0.052077,0.114839 0.08785,0.150378 0.035773,0.03554 0.09368,0.07383 0.1741495,0.136427 0.1260425,0.09803 0.2543874,0.123738 0.4237466,0.115237 0.1345269,-0.0068 0.2925085,-0.107977 0.3829225,-0.238228 0.030394,-0.04379 0.060229,-0.149593 0.064079,-0.261483 0.00385,-0.111889 -0.014962,-0.232153 -0.040824,-0.302823 -0.022373,-0.06113 -0.1003779,-0.175297 -0.191203,-0.265618 -0.090825,-0.09032 -0.2005145,-0.157131 -0.2423623,-0.16433 -0.039191,-0.0067 -0.080221,-0.0092 -0.1209231,-0.0078 z m -3.6938312,1.50426 c -0.1175857,-0.0059 -0.2751667,0.104056 -0.3689697,0.238228 -0.030659,0.04385 -0.060526,0.148273 -0.064596,0.259417 -0.00407,0.11114 0.013664,0.231333 0.039274,0.302823 0.021669,0.0605 0.1000808,0.174757 0.1912028,0.265618 0.091122,0.09086 0.2025435,0.15693 0.2444295,0.16433 0.1563936,0.02769 0.3390906,-0.01109 0.4392496,-0.101804 0.1392057,-0.126084 0.2204521,-0.227605 0.2542482,-0.328144 0.033796,-0.100539 0.030614,-0.213468 -0.03359,-0.392739 -0.028814,-0.08046 -0.05359,-0.115682 -0.089917,-0.15193 -0.036327,-0.03626 -0.091274,-0.07405 -0.1715659,-0.136943 -0.1203028,-0.0942 -0.2541602,-0.109556 -0.4397655,-0.118856 z m 3.7129516,0.0011 c -0.1218205,0.0056 -0.2221976,0.03025 -0.3028238,0.07493 -0.1075021,0.05957 -0.1902584,0.154728 -0.2537315,0.328144 -0.030797,0.08435 -0.032505,0.106899 -0.029456,0.14056 0.00305,0.03366 0.019206,0.09387 0.031523,0.199472 0.018476,0.158303 0.091707,0.271034 0.2165242,0.384471 0.100416,0.09125 0.2830269,0.130289 0.4397666,0.103354 0.041843,-0.0072 0.1515374,-0.07142 0.2423623,-0.161747 0.090825,-0.09033 0.168833,-0.204486 0.191203,-0.265616 0.025866,-0.07067 0.044674,-0.190936 0.040824,-0.302826 -0.00385,-0.111887 -0.033683,-0.21821 -0.064079,-0.261998 -0.09042,-0.130257 -0.2484557,-0.231429 -0.3829225,-0.238228 -0.045542,-0.0024 -0.088584,-0.0024 -0.129191,-5.3e-4 z m -1.0309447,1.044338 c -0.060491,0.0034 -0.1306991,0.01984 -0.2191081,0.05219 -0.080697,0.02954 -0.1148424,0.05207 -0.1503786,0.08785 -0.035536,0.03578 -0.073833,0.0911 -0.1364257,0.171566 -0.09803,0.12604 -0.1237483,0.256453 -0.1152382,0.425813 0.00679,0.134527 0.1100428,0.292502 0.2402953,0.382923 0.04379,0.03039 0.1475283,0.05863 0.2594155,0.06253 0.1118875,0.0039 0.232156,-0.01342 0.3028241,-0.03927 0.061123,-0.02238 0.1752947,-0.100372 0.2656168,-0.191203 0.090322,-0.09083 0.157131,-0.202063 0.1643311,-0.243912 0.027779,-0.161401 -0.00747,-0.34984 -0.095602,-0.429948 -0.1436957,-0.130593 -0.2530134,-0.216701 -0.3539834,-0.253732 -0.050485,-0.01852 -0.101256,-0.02818 -0.1617472,-0.02482 z m -1.4335043,0.02066 c -0.032704,0.0028 -0.090211,0.01873 -0.1953368,0.03152 -0.151724,0.01844 -0.2571332,0.101653 -0.3948081,0.226343 -0.08745,0.07915 -0.1221102,0.27033 -0.093534,0.431496 0.00742,0.04192 0.072961,0.1533 0.1638142,0.24443 0.090853,0.09113 0.2071798,0.169535 0.2676839,0.191204 0.071503,0.02561 0.191678,0.04337 0.3028239,0.03928 0.1111459,-0.0041 0.2140264,-0.03395 0.2578655,-0.0646 0.1341776,-0.09381 0.2441382,-0.251338 0.2382282,-0.368969 -0.00956,-0.189349 -0.034599,-0.341397 -0.091984,-0.451136 -0.057385,-0.109738 -0.1420947,-0.188476 -0.3141927,-0.250116 -0.085182,-0.0305 -0.1078558,-0.03225 -0.1405599,-0.02945 z"
           style="opacity:1;fill-opacity:1;stroke:none;stroke-width:0.26458332;stroke-linecap:round;stroke-linejoin:round;stroke-miterlimit:4;stroke-dasharray:none;stroke-opacity:1" />
        <path
           id="path4337"
           d="m 21.440955,116.26793 c 0.77817,-1.07331 1.1462,-2.95372 0.829553,-4.23844 l -3.17e-4,-7e-5 c -0.271229,-1.10016 -0.552934,-1.34494 -1.836051,-1.59546 -0.915825,-0.17881 -1.898647,0.23367 -2.018371,0.84688 -0.136886,0.70111 0.09413,1.06747 0.754626,1.19642 0.567403,0.11078 0.673399,0.0566 0.646849,-0.33146 -0.08643,-1.26294 1.179954,-0.35095 1.315894,0.94766 0.122513,1.17027 -0.401778,2.21097 -1.573796,3.124 l -0.822788,0.64099 0.293239,-0.72662 0.293555,-0.72654 -0.880481,0.42241 c -1.198744,0.57502 -1.96754,0.57486 -2.843792,-4.1e-4 -1.992712,-1.30819 -2.777967,-6.29465 -1.922925,-12.209 0.380506,-2.63193 1.952426,-7.781847 3.39766,-11.130725 0.350932,-0.813174 0.85032,-1.975768 1.109569,-2.583473 0.259249,-0.607706 0.548816,-1.034417 0.64358,-0.948451 0.381738,0.346278 0.632427,-0.03971 0.564133,-0.868529 -0.04952,-0.601012 0.08581,-1.238421 0.454798,-2.14234 1.028564,-2.519911 0.951049,-2.386607 1.111372,-1.913452 0.152029,0.44867 0.769347,0.701328 0.839205,0.343523 0.02252,-0.11536 0.0284,-0.750307 0.01324,-1.411127 -0.02096,-0.913435 0.132709,-1.656801 0.640501,-3.10022 l 0.667796,-1.898377 0.43412,0.589562 c 0.560872,0.761832 0.79553,0.586408 0.693123,-0.517895 -0.04504,-0.485644 -0.132635,-1.456099 -0.194585,-2.156907 -0.06905,-0.781172 0.06228,-2.173443 0.339818,-3.597921 0.959584,-4.924797 0.495192,-10.47328 -1.004258,-11.997722 -0.2299,-0.233722 -0.741486,-0.48799 -1.136852,-0.565182 -1.544783,-0.301604 -3.018382,1.952059 -2.124423,3.249149 0.650552,0.94394 2.171914,0.862915 2.364985,-0.125975 0.121688,-0.62327 -0.350757,-1.032369 -0.871747,-0.754975 -0.409979,0.218297 -0.617365,-0.0083 -0.510236,-0.557033 0.120657,-0.617994 0.844879,-0.736424 1.480076,-0.242159 1.381235,1.074768 1.620844,9.82268 0.312222,11.39763 -0.356919,0.429553 -1.002676,0.385037 -1.331293,-0.09177 -0.170216,-0.246968 -0.238279,-0.217273 -0.306784,0.133602 -0.114037,0.584084 0.450835,1.314487 1.117504,1.444648 0.523441,0.102197 0.523523,0.103435 -0.06358,2.353313 -0.834604,3.198281 -1.818139,4.422462 -2.619199,3.260172 -0.17021,-0.246981 -0.235945,-0.23093 -0.295097,0.07204 -0.11832,0.606019 0.186115,1.326648 0.593873,1.406259 0.316622,0.06182 0.290148,0.130518 -0.184093,0.479388 -0.834807,0.614159 -1.015585,1.061356 -0.812654,2.009946 0.170864,0.798723 0.09739,1.074985 -0.996069,3.743251 -0.649318,1.584448 -1.334145,3.005555 -1.521512,3.157906 -0.187359,0.152356 -0.437418,0.438216 -0.555826,0.635522 -0.247436,0.4123 -0.938465,0.34654 -1.259976,-0.119963 -0.170221,-0.246979 -0.235627,-0.230862 -0.294778,0.0721 -0.11832,0.606023 0.185799,1.326582 0.593555,1.406192 0.296688,0.05793 0.240031,0.163322 -0.288034,0.534784 -0.504345,0.354785 -0.697212,0.691478 -0.826963,1.444433 -0.200383,1.163017 -0.09253,1.396657 0.49953,1.082123 0.400456,-0.212743 0.413714,-0.16772 0.152024,0.512438 -2.700798,7.019575 -3.266128,14.851545 -1.357998,18.817985 0.343167,0.71334 0.912398,1.44548 1.369477,1.76204 2.668298,1.62262 5.907807,0.7443 6.928665,-0.53416 z"
           style="stroke-width:0.99999994" />
      </g>
      <g
         id="g4365"
         transform="rotate(-3.7697463,51.818878,481.32308)">
        <path
           id="path4341"
           d="m 53.917197,58.556149 c 0.302828,0.177094 0.524555,0.175802 0.872216,0.12897 0.347661,-0.04683 0.635175,-0.231835 0.865276,-0.496624 0.230101,-0.264789 0.315833,-0.643153 0.269001,-0.990814 -0.04683,-0.347661 -0.368201,-0.748065 -0.671029,-0.925158 -0.302828,-0.177094 -0.789664,-0.274514 -1.116881,-0.148017 -0.327218,0.126497 -0.590782,0.3778 -0.732713,0.698625 -0.141931,0.320825 -0.150601,0.684891 -0.0241,1.012109 0.126497,0.327217 0.235407,0.543816 0.538234,0.720909 0,0 0,0 0,0"
           style="opacity:1;fill-opacity:1;stroke:none;stroke-width:0.26458332;stroke-linecap:butt;stroke-linejoin:miter;stroke-miterlimit:4;stroke-dasharray:none;stroke-opacity:1;paint-order:normal" />
        <path
           id="path4343"
           d="m 46.632786,105.66545 c 0.221392,0.47723 0.906877,1.102 1.427193,1.17945 0.520315,0.0774 1.112568,-0.0346 1.4999,-0.39053 0.387332,-0.35594 0.676529,-0.75898 0.75398,-1.27929 0.07745,-0.52032 0.139122,-0.70192 -0.08227,-1.17915 -0.461026,-0.99378 -1.422263,-1.29772 -2.482727,-1.02239 -1.060464,0.27534 -1.577096,1.69813 -1.116074,2.69191 0,0 0,0 0,0"
           style="opacity:1;fill-opacity:1;stroke:none;stroke-width:0.26458332;stroke-linecap:butt;stroke-linejoin:miter;stroke-miterlimit:4;stroke-dasharray:none;stroke-opacity:1;paint-order:normal" />
        <path
           id="path4345"
           style="opacity:1;fill-opacity:1;stroke:none;stroke-width:0.26458332;stroke-linecap:butt;stroke-linejoin:miter;stroke-miterlimit:4;stroke-dasharray:none;stroke-opacity:1;paint-order:normal"
           d="m 56.0175,60.924057 c 0.165034,0.32752 0.325411,0.364598 0.643812,0.546381 0.318401,0.181785 0.695974,0.229638 1.049658,0.133036 0.353684,-0.0966 0.654507,-0.329749 0.836291,-0.648151 0.181783,-0.3184 0.105104,-0.948266 -0.05993,-1.275786 -0.16592,-0.32928 -0.549244,-0.703635 -0.907603,-0.773295 -0.35836,-0.06966 -0.754992,-0.0078 -1.046571,0.217838 -0.29158,0.225676 -0.505029,0.517342 -0.57469,0.875702 -0.06966,0.358358 -0.106887,0.594996 0.05903,0.924275 0,0 0,0 0,0" />
        <path
           id="path4347"
           style="opacity:1;fill-opacity:1;stroke:none;stroke-width:0.26458332;stroke-linecap:butt;stroke-linejoin:miter;stroke-miterlimit:4;stroke-dasharray:none;stroke-opacity:1;paint-order:normal"
           d="m 56.576353,64.310977 c 0.0016,0.382673 0.12811,0.663057 0.381471,0.949874 0.253361,0.286818 0.602049,0.438592 0.982059,0.483982 0.38001,0.04539 0.767869,-0.104473 1.054686,-0.357835 0.286817,-0.253361 0.469106,-0.705324 0.467518,-1.087997 -0.0016,-0.386613 -0.171447,-0.848975 -0.460298,-1.094803 -0.288852,-0.245826 -0.665464,-0.370398 -1.050809,-0.339389 -0.385345,0.03101 -0.737192,0.214196 -0.983019,0.503047 -0.245827,0.288851 -0.393213,0.556508 -0.391608,0.943121 0,0 0,0 0,0" />
        <path
           id="path4349"
           style="opacity:1;fill-opacity:1;stroke:none;stroke-width:0.26458332;stroke-linecap:butt;stroke-linejoin:miter;stroke-miterlimit:4;stroke-dasharray:none;stroke-opacity:1;paint-order:normal"
           d="m 55.991959,68.147782 c -0.09045,0.388219 -0.02297,0.796467 0.18759,1.134933 0.210559,0.338467 0.532598,0.549693 0.914402,0.664376 0.381805,0.114682 0.81723,0.02846 1.155697,-0.182097 0.338465,-0.210557 0.579425,-0.546947 0.66987,-0.935166 0.09179,-0.393976 0.04689,-0.878565 -0.180974,-1.199548 -0.227864,-0.320983 -0.575408,-0.54419 -0.97429,-0.611866 -0.398881,-0.06768 -0.800598,0.02841 -1.121581,0.256272 -0.320983,0.227863 -0.558927,0.479121 -0.650714,0.873096 0,0 0,0 0,0" />
        <path
           id="path4351"
           style="opacity:1;fill-opacity:1;stroke:none;stroke-width:0.26458332;stroke-linecap:butt;stroke-linejoin:miter;stroke-miterlimit:4;stroke-dasharray:none;stroke-opacity:1;paint-order:normal"
           d="m 54.756097,72.143974 c -0.137362,0.391212 -0.113688,0.820968 0.06581,1.194726 0.1795,0.373757 0.494399,0.640003 0.879441,0.793796 0.385042,0.153794 0.832862,0.118153 1.206619,-0.06135 0.373757,-0.179501 0.660901,-0.500123 0.798261,-0.891336 0.139972,-0.398649 0.137993,-0.885402 -0.05527,-1.244607 -0.193262,-0.359206 -0.522322,-0.634965 -0.926948,-0.756503 -0.404626,-0.121537 -0.831174,-0.07274 -1.19038,0.120522 -0.359205,0.193262 -0.637564,0.4461 -0.777536,0.844749 0,0 0,0 0,0" />
        <path
           id="path4353"
           style="opacity:1;fill-opacity:1;stroke:none;stroke-width:0.26458332;stroke-linecap:butt;stroke-linejoin:miter;stroke-miterlimit:4;stroke-dasharray:none;stroke-opacity:1;paint-order:normal"
           d="m 53.114503,76.232252 c -0.159708,0.399851 -0.154036,0.84677 0.01577,1.242439 0.169806,0.395668 0.487148,0.697948 0.88399,0.865071 0.396842,0.167124 0.85247,0.156348 1.248138,-0.01346 0.395669,-0.169808 0.707676,-0.48984 0.867384,-0.889691 0.163363,-0.409003 0.150728,-0.854472 -0.01577,-1.242437 -0.1665,-0.387965 -0.480685,-0.70402 -0.889687,-0.867383 -0.409003,-0.163364 -0.854473,-0.150729 -1.242437,0.01577 -0.387966,0.166501 -0.704021,0.480685 -0.867385,0.889688 0,0 0,0 0,0" />
        <path
           id="path4355"
           style="opacity:1;fill-opacity:1;stroke:none;stroke-width:0.26458332;stroke-linecap:butt;stroke-linejoin:miter;stroke-miterlimit:4;stroke-dasharray:none;stroke-opacity:1;paint-order:normal"
           d="m 51.309908,80.423296 c -0.173314,0.41154 -0.186606,0.898555 -0.01112,1.309164 0.175488,0.410608 0.506903,0.734686 0.921337,0.900941 0.414434,0.166254 0.877937,0.161066 1.288545,-0.01442 0.410609,-0.175489 0.731342,-0.477187 0.904654,-0.888728 0.177902,-0.422437 0.172247,-0.884386 0.0076,-1.288621 -0.164655,-0.404236 -0.483387,-0.73866 -0.905824,-0.916562 -0.422438,-0.177903 -0.884387,-0.17225 -1.288622,-0.0076 -0.404236,0.164656 -0.738661,0.483386 -0.916564,0.905823 0,0 0,0 0,0" />
        <path
           id="path4357"
           style="opacity:1;fill-opacity:1;stroke:none;stroke-width:0.26458332;stroke-linecap:butt;stroke-linejoin:miter;stroke-miterlimit:4;stroke-dasharray:none;stroke-opacity:1;paint-order:normal"
           d="m 49.508525,84.893967 c -0.152559,0.436598 -0.12543,0.915917 0.07541,1.332513 0.200847,0.416596 0.558959,0.736344 0.995558,0.888902 0.436598,0.152558 0.915917,0.125429 1.332514,-0.07542 0.416595,-0.200847 0.736342,-0.558959 0.888899,-0.995558 0.157108,-0.449622 0.122133,-0.908058 -0.06922,-1.31614 -0.191353,-0.408082 -0.537986,-0.73758 -0.98586,-0.899511 -0.447874,-0.161932 -0.925077,-0.130296 -1.333158,0.06106 -0.408083,0.191353 -0.747038,0.554535 -0.904148,1.004156 0,0 0,0 0,0" />
        <path
           id="path4359"
           style="opacity:1;fill-opacity:1;stroke:none;stroke-width:0.26458332;stroke-linecap:butt;stroke-linejoin:miter;stroke-miterlimit:4;stroke-dasharray:none;stroke-opacity:1;paint-order:normal"
           d="m 47.866765,89.455546 c -0.154283,0.452861 -0.122349,0.948463 0.08878,1.377779 0.211127,0.429316 0.586288,0.775522 1.044292,0.913799 0.458005,0.138278 0.941184,0.120008 1.3705,-0.09112 0.429315,-0.211128 0.757176,-0.584153 0.911458,-1.037015 0.159366,-0.467785 0.116427,-0.960496 -0.08878,-1.377775 -0.205207,-0.417279 -0.569225,-0.752091 -1.03701,-0.911458 -0.467786,-0.159366 -0.960497,-0.116429 -1.377776,0.08878 -0.417279,0.205207 -0.752091,0.569224 -0.911459,1.037009 0,0 0,0 0,0" />
        <path
           id="path4361"
           style="opacity:1;fill-opacity:1;stroke:none;stroke-width:0.26458332;stroke-linecap:butt;stroke-linejoin:miter;stroke-miterlimit:4;stroke-dasharray:none;stroke-opacity:1;paint-order:normal"
           d="m 46.343953,94.310925 c -0.124196,0.478496 -0.03685,1.081024 0.235844,1.493318 0.272697,0.412296 0.69801,0.699367 1.182372,0.798075 0.484361,0.09871 0.988096,9.69e-4 1.400388,-0.271732 0.412294,-0.272699 0.665533,-0.604611 0.789727,-1.083107 0.12865,-0.495663 0.04557,-0.999732 -0.197309,-1.41289 -0.242881,-0.413157 -0.636602,-0.708258 -1.126853,-0.856271 -0.490251,-0.148013 -1.011461,-0.04885 -1.424618,0.194028 -0.413159,0.242881 -0.730899,0.642917 -0.859551,1.138579 0,0 0,0 0,0" />
        <path
           id="path4363"
           style="opacity:1;fill-opacity:1;stroke:none;stroke-width:0.26458332;stroke-linecap:butt;stroke-linejoin:miter;stroke-miterlimit:4;stroke-dasharray:none;stroke-opacity:1;paint-order:normal"
           d="m 45.501362,99.757911 c -0.0087,0.510219 0.206313,1.211409 0.602514,1.532919 0.396204,0.32152 0.903901,0.47247 1.411405,0.41966 0.507505,-0.0528 0.973243,-0.30506 1.294759,-0.70127 0.321516,-0.3962 0.53011,-0.67563 0.538789,-1.185844 0.009,-0.52991 -0.195134,-0.8197 -0.495182,-1.211441 -0.300047,-0.391741 -0.749145,-0.667668 -1.274463,-0.737296 -0.525319,-0.06963 -1.030792,0.07977 -1.422532,0.379823 -0.391741,0.300048 -0.646273,0.973539 -0.65529,1.503449 0,0 0,0 0,0" />
      </g>
    </g>
  </g>
</svg>
