<?xml version="1.0" encoding="UTF-8"?>
<svg width="84.415mm" height="82.652mm" version="1.1" viewBox="0 0 84.415 82.652" xmlns="http://www.w3.org/2000/svg" xmlns:cc="http://creativecommons.org/ns#" xmlns:dc="http://purl.org/dc/elements/1.1/" xmlns:rdf="http://www.w3.org/1999/02/22-rdf-syntax-ns#" xmlns:xlink="http://www.w3.org/1999/xlink">
 <metadata>
  <rdf:RDF>
   <cc:Work rdf:about="">
    <dc:format>image/svg+xml</dc:format>
    <dc:type rdf:resource="http://purl.org/dc/dcmitype/StillImage"/>
    <dc:title/>
   </cc:Work>
  </rdf:RDF>
 </metadata>
 <g transform="translate(-68.633 -87.64)">
  <g transform="translate(.060471 -.044422)">
   <g stroke-width="0">
    <g>
     <path d="m118.21 94.556 0.86861-1.637-1.3029-0.23386z" fill="#e9ca87"/>
     <path d="m115.34 94.756 1.1025-1.8041-2.2718 0.20045z" fill="#cfb177"/>
     <path d="m116.44 92.952 1.7707 1.6036-0.43433-1.8709z" fill="#d7c18a"/>
     <path d="m113 94.956 1.1693-1.8041h-1.637z" fill="#caae7d"/>
     <path d="m109.46 95.09 0.46773-1.9711-0.93545 0.06682z" fill="#e9cd9f"/>
     <path d="m111.43 93.887 1.5702 1.0691-0.46772-1.8041z" fill="#b69676"/>
     <path d="m104.71 94.89 1.8375-1.4366-1.8709-0.26726z" fill="#d0b486"/>
     <path d="m118.21 94.556 2.0045-1.2695-1.1359-0.36749z" fill="#d9be77"/>
     <path d="m107.55 94.121 1.9043 0.96886-0.46772-1.9043z" fill="#cfb28e"/>
     <path d="m109.46 95.09 1.9711-1.2027-1.5034-0.7684z" fill="#d0b497"/>
     <path d="m103.18 92.685 1.5368 2.205-0.0334-1.7038z" fill="#dcc598"/>
     <path d="m113 94.956 2.3386-0.20046-1.1693-1.6036z" fill="#c29e6b"/>
     <path d="m115.34 94.756 2.8732-0.20045-1.7707-1.6036z" fill="#d5ba89"/>
     <path d="m102.27 92.985 2.4388 1.9043-1.5368-2.205z" fill="#e7cb9f"/>
     <path d="m109.46 95.09 1.7372 0.93544 0.23386-2.1382z" fill="#e9cd9f"/>
     <path d="m97.531 94.756 0.30069 1.4032 0.46772-1.2695z" fill="#dfbf6c"/>
     <path d="m111.19 96.026 1.8041-1.0691-1.5702-1.0691z" fill="#b69676"/>
     <path d="m120.22 93.286 0.86863 2.8063 0.50113-2.205z" fill="#e7ca86"/>
     <path d="m121.08 96.092 1.7038-1.9043-1.2027-0.30067z" fill="#dcb97d"/>
     <path d="m94.257 95.19 1.7038 1.0357v-1.5034z" fill="#e7c591"/>
     <path d="m104.71 94.89 2.8398-0.7684-1.0023-0.66818z" fill="#c9ae74"/>
     <path d="m95.96 96.226 1.5702-1.47-1.5702-0.03339z" fill="#e0be88"/>
     <path d="m104.71 94.89 2.5391 1.3364 0.30068-2.1048z" fill="#cca86d"/>
     <path d="m107.25 96.226 2.205-1.1359-1.9043-0.96886z" fill="#9a6b43"/>
     <path d="m118.21 94.556 2.8731 1.5368-0.86863-2.8063z" fill="#e1c688"/>
     <path d="m115.34 94.756 1.9043 1.8375 0.96887-2.0379z" fill="#d5ba80"/>
     <path d="m100.14 94.656 1.5034 2.0379-0.53455-2.9065z" fill="#e4bb6b"/>
     <path d="m95.96 96.226 1.8709-0.06682-0.30069-1.4032z" fill="#ddc28c"/>
     <path d="m115.67 96.36 1.5702 0.23386-1.9043-1.8375z" fill="#b89665"/>
     <path d="m101.11 93.787 3.6081 1.1025-2.4388-1.9043z" fill="#d5b785"/>
     <path d="m113 94.956 1.3029 2.0379 1.0357-2.2384z" fill="#b99062"/>
     <path d="m101.64 96.694 3.0736-1.8041-3.6081-1.1025z" fill="#dfb46d"/>
     <path d="m114.3 96.994 1.3698-0.63477-0.3341-1.6036z" fill="#b59676"/>
     <path d="m117.24 96.593 1.4366 0.4343-0.46772-2.4722z" fill="#caa479"/>
     <path d="m98.299 94.89 1.8375-0.23386-1.0357-0.23386z" fill="#e3ceb0"/>
     <path d="m101.64 96.694 2.3386 0.06682 0.73497-1.8709z" fill="#a06a2b"/>
     <path d="m109.72 97.095 1.47-1.0691-1.7372-0.93544z" fill="#5b3323"/>
     <path d="m123.99 94.522 1.8375 2.4388 0.40089-2.372z" fill="#e8caa4"/>
     <path d="m111.19 96.026 1.47 1.1359 0.33408-2.205z" fill="#a78765"/>
     <path d="m118.68 97.028 2.4054-0.93544-2.8731-1.5368z" fill="#dcb47b"/>
     <path d="m128.63 97.228 1.303-1.4032-1.7038-0.63476z" fill="#ddc494"/>
     <path d="m112.66 97.161 1.637-0.16704-1.3029-2.0379z" fill="#b68d60"/>
     <path d="m125.83 96.961 2.4054-1.7707-2.0045-0.60136z" fill="#e9caa5"/>
     <path d="m97.831 96.159 2.3052-1.5034-1.8375 0.23386z" fill="#d8b266"/>
     <path d="m122.79 94.188 0.7016 3.3075 0.50113-2.9734z" fill="#ebcd96"/>
     <path d="m107.25 96.226 2.4722 0.86862-0.26727-2.0045z" fill="#ab7f5b"/>
     <path d="m121.08 96.092 2.4054 1.4032-0.7016-3.3075z" fill="#e3bb82"/>
     <path d="m123.49 97.496 2.3386-0.53454-1.8375-2.4388z" fill="#e1c698"/>
     <path d="m115.67 96.36 1.0357 1.4366 0.53454-1.2027z" fill="#9d7f57"/>
     <path d="m93.221 97.896 1.0357-2.7061-2.1382 0.33408z" fill="#d0b081"/>
     <path d="m99.869 97.896 1.7707-1.2027-1.5034-2.0379z" fill="#e3b771"/>
     <path d="m97.831 96.159 2.0379 1.7373 0.26726-3.2406z" fill="#e7c583"/>
     <path d="m103.98 96.761 3.274-0.53454-2.5391-1.3364z" fill="#d1aa65"/>
     <path d="m125.83 96.961 2.8063 0.26726-0.40089-2.0379z" fill="#ddbb92"/>
     <path d="m107.25 96.226 1.3029 1.8041 1.1693-0.93545z" fill="#abb537"/>
     <path d="m98.333 97.83 1.5368 0.06681-2.0379-1.7373z" fill="#d7a778"/>
     <path d="m94.257 95.19 1.3698 2.5056 0.33408-1.47z" fill="#e6c395"/>
     <path d="m88.477 97.128 1.5368 1.0357 0.06682-1.8041z" fill="#e2c891"/>
     <path d="m93.221 97.896 2.4054-0.20046-1.3698-2.5056z" fill="#daae7d"/>
     <path d="m116.71 97.796 1.9711-0.76841-1.4366-0.4343z" fill="#bb905d"/>
     <path d="m95.626 97.696 2.205-1.5368-1.8709 0.06682z" fill="#dbb680"/>
     <path d="m95.626 97.696 2.7061 0.13364-0.50113-1.6704z" fill="#caa075"/>
     <path d="m118.68 97.028 2.1047 1.7038 0.30069-2.6393z" fill="#d1a26c"/>
     <path d="m114.3 96.994 2.4054 0.8018-1.0357-1.4366z" fill="#a08352"/>
     <path d="m90.081 96.36 3.1404 1.5368-1.1025-2.372z" fill="#e2bc8e"/>
     <path d="m128.63 97.228 3.107-0.30068-1.8041-1.1025z" fill="#e1c290"/>
     <path d="m95.626 97.696 1.4032 1.3698 1.3029-1.2361z" fill="#d3ab75"/>
     <path d="m90.014 98.164 3.2072-0.26726-3.1404-1.5368z" fill="#ddbc88"/>
     <path d="m109.72 97.095 2.94 0.06682-1.47-1.1359z" fill="#aa865f"/>
     <path d="m120.78 98.732 2.7061-1.2361-2.4054-1.4032z" fill="#e2b57a"/>
     <path d="m116.71 97.796 2.0714 0.96886-0.10022-1.7373z" fill="#c29059"/>
     <path d="m118.78 98.765 2.0045-0.03342-2.1047-1.7038z" fill="#b1855e"/>
     <path d="m105.28 99.266 1.9711-3.0402-3.274 0.53454z" fill="#9ba12a"/>
     <path d="m128.63 97.228 2.1382 2.1382 0.96886-2.4388z" fill="#dab882"/>
     <path d="m126.7 99.634 1.9377-2.4054-2.8063-0.26726z" fill="#d7af82"/>
     <path d="m130.77 99.366 2.2718-1.2695-1.303-1.1693z" fill="#e6c68d"/>
     <path d="m103.51 99.801 1.7707-0.53454-1.3029-2.5057z" fill="#9cad10"/>
     <path d="m105.28 99.266 3.274-1.2361-1.3029-1.8041z" fill="#9ba12a"/>
     <path d="m101.64 96.694 1.8709 3.107 0.46773-3.0402z" fill="#b8b357"/>
     <path d="m95.76 100.1 1.2695-1.0357-1.4032-1.3698z" fill="#d0ae72"/>
     <path d="m88.143 100.17 0.33409-3.0402-1.7038 0.80181z" fill="#d4b786"/>
     <path d="m88.143 100.17 1.8709-2.0045-1.5368-1.0357z" fill="#e3c38d"/>
     <path d="m91.15 100.3 2.0713-2.4054-3.2072 0.26726z" fill="#e0b384"/>
     <path d="m91.15 100.3 1.8041-0.20043 0.26727-2.205z" fill="#e6b075"/>
     <path d="m123.49 97.496 3.2072 2.1381-0.86862-2.6727z" fill="#cea177"/>
     <path d="m93.221 97.896 2.539 2.205-0.13361-2.4054z" fill="#d0a164"/>
     <path d="m123.82 100.44 2.8731-0.80182-3.2072-2.1381z" fill="#d09669"/>
     <path d="m118.78 98.765 2.1047 1.4032-0.10024-1.4366z" fill="#ae8260"/>
     <path d="m85.537 100.5 1.2361-2.5725-1.7707 1.0691z" fill="#e4c39b"/>
     <path d="m99.869 97.896 3.6415 1.9043-1.8709-3.107z" fill="#b4b93e"/>
     <path d="m92.954 100.1h2.8063l-2.539-2.205z" fill="#ce9c54"/>
     <path d="m120.78 98.732 3.0402 1.7038-0.33408-2.94z" fill="#b38263"/>
     <path d="m83.633 100.03 1.9043 0.46772-0.53455-1.5034z" fill="#dbc19a"/>
     <path d="m133.04 98.097-0.26727 2.94 1.4366-1.5034z" fill="#e5d287"/>
     <path d="m85.537 100.5 2.6059-0.33407-1.3698-2.2384z" fill="#dcc59a"/>
     <path d="m130.77 99.366 2.0045 1.6705 0.26727-2.94z" fill="#e2be7e"/>
     <path d="m120.88 100.17 2.94 0.26726-3.0402-1.7038z" fill="#b97f4a"/>
     <path d="m131.74 101.17 1.0466-0.16058-2.0154-1.6435z" fill="#e5bf81"/>
     <path d="m88.143 100.17 3.0068 0.13362-1.1359-2.1382z" fill="#e2c298"/>
     <path d="m126.7 99.634 4.0758-0.26726-2.1382-2.1382z" fill="#d5ad7b"/>
     <path d="m95.76 100.1 2.1831 0.61081-0.91351-1.6465z" fill="#debb85"/>
     <path d="m132.78 101.04 1.863-0.58922-0.42643-0.9142z" fill="#e3ca93"/>
     <path d="m126.7 99.634 2.4722 2.0713 1.6036-2.3386z" fill="#dcb586"/>
     <path d="m82.731 101.81 0.90204-1.7706-1.47 1.1693z" fill="#d6ba96"/>
     <path d="m91.15 100.3 1.5368 1.5368 0.26726-1.7372z" fill="#d7b587"/>
     <path d="m82.731 101.81 0.93545 0.16707-0.03341-1.9377z" fill="#d5b680"/>
     <path d="m85.537 100.5 1.8041 1.47 0.8018-1.8041z" fill="#e7d09c"/>
     <path d="m92.954 100.1 1.9377 1.9377 0.86861-1.9377z" fill="#e1b376"/>
     <path d="m83.666 101.97 1.8709-1.47-1.9043-0.46772z" fill="#ceb173"/>
     <path d="m129.17 101.71 2.5725-0.53454-0.96886-1.8041z" fill="#e5c282"/>
     <path d="m88.143 100.17 1.9377 2.0714 1.0691-1.9377z" fill="#d9b884"/>
     <path d="m126.83 101.91 2.3386-0.20045-2.4722-2.0713z" fill="#ddb786"/>
     <path d="m95.76 100.1 1.8041 1.9711 0.37898-1.3603z" fill="#dea770"/>
     <path d="m92.686 101.84 2.205 0.20046-1.9377-1.9377z" fill="#d8ae7e"/>
     <path d="m123.82 100.44 3.0068 1.47-0.13364-2.2718z" fill="#debf8b"/>
     <path d="m81.895 102.57 0.83521-0.76842-0.56795-0.60134z" fill="#ddb574"/>
     <path d="m80.916 102.57 1.0223-0.0369 0.22455-1.3279z" fill="#ebd4b8"/>
     <path d="m94.891 102.04 2.6727 0.0334-1.8041-1.9711z" fill="#d5b274"/>
     <path d="m87.341 101.97 2.7395 0.26728-1.9377-2.0714z" fill="#dcc08a"/>
     <path d="m129.17 101.71 2.5056 0.63479 0.0668-1.1693z" fill="#e2bc7c"/>
     <path d="m90.081 102.24 2.6059-0.40093-1.5368-1.5368z" fill="#d8b584"/>
     <path d="m123.82 100.44 1.8709 2.8063 1.1359-1.3364z" fill="#dbb37c"/>
     <path d="m120.88 100.17 2.6059 2.7395 0.33408-2.4722z" fill="#d7a683"/>
     <path d="m123.49 102.91 2.205 0.33407-1.8709-2.8063z" fill="#bb9156"/>
     <path d="m84.267 103.38 1.2695-2.8732-1.8709 1.47z" fill="#ccb276"/>
     <path d="m118.34 102.71 2.0045 0.80179-0.60136-2.0714z" fill="#835736"/>
     <path d="m97.598 103.18 2.0045 0.33407-2.0379-1.4366z" fill="#c7a968"/>
     <path d="m120.35 103.51 0.53454-3.3409-1.1359 1.2695z" fill="#a87b69"/>
     <path d="m84.267 103.38 3.0736-1.4032-1.8041-1.47z" fill="#d8be81"/>
     <path d="m92.887 103.71 2.0045-1.6704-2.205-0.20046z" fill="#cea974"/>
     <path d="m120.35 103.51 3.1404-0.60135-2.6059-2.7395z" fill="#c59566"/>
     <path d="m94.891 102.04 2.7061 1.1359-0.03342-1.1025z" fill="#c7a968"/>
     <path d="m129.57 104.04 2.1047-1.7038-2.5056-0.63479z" fill="#e8c580"/>
     <path d="m129.57 104.04 2.2718-0.50115-0.16706-1.2027z" fill="#e9c78c"/>
     <path d="m90.682 104.24 2.0045-2.4054-2.6059 0.40093z" fill="#dfc182"/>
     <path d="m90.682 104.24 2.205-0.53454-0.20045-1.8709z" fill="#ccaf6d"/>
     <path d="m125.69 103.24 1.7372 1.4366-0.60135-2.7729z" fill="#e1c681"/>
     <path d="m97.598 103.18 1.0023 1.637 1.0023-1.3029z" fill="#e0c984"/>
     <path d="m127.43 104.68 1.7373-2.9734-2.3386 0.20045z" fill="#d7bb78"/>
     <path d="m127.43 104.68 2.1382-0.63475-0.40091-2.3386z" fill="#ebc488"/>
     <path d="m94.891 102.04 1.6036 2.8397 1.1025-1.7038z" fill="#e4c487"/>
     <path d="m84.267 103.38 2.7395 1.3363 0.33409-2.7395z" fill="#dec990"/>
     <path d="m126.53 105.11 0.90203-0.4343-1.7372-1.4366z" fill="#d4be6e"/>
     <path d="m94.323 105.35 0.56794-3.3074-2.0045 1.6704z" fill="#d4b16f"/>
     <path d="m87.007 104.71 3.0736-2.4722-2.7395-0.26728z" fill="#dac083"/>
     <path d="m96.495 104.88 2.1048-0.0668-1.0023-1.637z" fill="#ddbc80"/>
     <path d="m94.323 105.35 2.1716-0.46772-1.6036-2.8397z" fill="#d1a669"/>
     <path d="m123.49 105.31 2.205-2.0714-2.205-0.33407z" fill="#bfa45c"/>
     <path d="m87.007 104.71 3.675-0.46772-0.60136-2.0045z" fill="#dac581"/>
     <path d="m87.007 104.71 2.5725 1.0023 1.1025-1.47z" fill="#cdb256"/>
     <path d="m120.35 103.51 3.1404 1.8041v-2.4054z" fill="#caaa63"/>
     <path d="m116.41 103.58 1.8375 2.4389 0.10023-3.3074z" fill="#e6b76b"/>
     <path d="m92.887 103.71 0.73499 2.3052 0.70159-0.66819z" fill="#c9a55b"/>
     <path d="m118.24 106.01 2.1048-2.5057-2.0045-0.80179z" fill="#b88b49"/>
     <path d="m118.24 106.01 2.1382-0.70159-0.0334-1.8041z" fill="#c09344"/>
     <path d="m120.38 105.31h3.107l-3.1404-1.8041z" fill="#c8a159"/>
     <path d="m100.84 106.25 1.2361-1.0691-0.60136-1.0023z" fill="#c8a475"/>
     <path d="m123.49 105.31 3.0402-0.20046-0.83522-1.8709z" fill="#dccb8e"/>
     <path d="m99.602 103.51 1.2361 2.7395 0.63476-2.0714z" fill="#a77d58"/>
     <path d="m98.6 104.81 2.2384 1.4366-1.2361-2.7395z" fill="#7a5827"/>
     <path d="m111.73 106.65 1.3698-1.4032-2.0713-0.26725z" fill="#c4a473"/>
     <path d="m113.1 105.25 1.5034 1.6036-0.13365-2.5057z" fill="#c8aa77"/>
     <path d="m90.682 104.24 2.94 1.7707-0.73499-2.3052z" fill="#cfb06b"/>
     <path d="m98.065 105.98 2.7729 0.26726-2.2384-1.4366z" fill="#a78748"/>
     <path d="m114.6 106.85 1.8041-3.2741-1.9377 0.76841z" fill="#d8b787"/>
     <path d="m104.35 105.38 1.5702 2.1382 0.70158-1.5368z" fill="#92745a"/>
     <path d="m114.6 106.85 3.6415-0.83522-1.8375-2.4389z" fill="#9f764b"/>
     <path d="m98.333 107.32 2.5057-1.0691-2.7729-0.26726z" fill="#b6a05a"/>
     <path d="m106.62 105.98 2.1048 1.7372-0.23387-2.4722z" fill="#efd1a2"/>
     <path d="m100.84 106.25 1.6704 1.8041-0.43431-2.8732z" fill="#caae7e"/>
     <path d="m89.579 105.71 4.0424 0.30069-2.94-1.7707z" fill="#d2b97e"/>
     <path d="m111.73 106.65 2.8732 0.20047-1.5034-1.6036z" fill="#d8bc82"/>
     <path d="m108.72 107.72 2.3052-2.7395-2.5391 0.26725z" fill="#7d5735"/>
     <path d="m102.51 108.05 1.8375-2.6727-2.2718-0.20045z" fill="#b79c66"/>
     <path d="m108.72 107.72 3.0068-1.0691-0.70158-1.6704z" fill="#cba77e"/>
     <path d="m99.201 108.19 1.637-1.9377-2.5057 1.0691z" fill="#7d733f"/>
     <path d="m114.6 106.85 2.3052 1.4366 1.3363-2.2718z" fill="#bd9d57"/>
     <path d="m105.92 107.52 2.8063 0.20043-2.1048-1.7372z" fill="#c8a867"/>
     <path d="m111.73 106.65 1.8709 2.2718 1.0023-2.0713z" fill="#d9b97c"/>
     <path d="m102.51 108.05 3.4077-0.53455-1.5702-2.1382z" fill="#a78f67"/>
     <path d="m108.72 107.72 1.8709 1.5368 1.1359-2.6059z" fill="#d4bd84"/>
     <path d="m100 109.16 0.83522-2.9066-1.637 1.9377z" fill="#776634"/>
     <path d="m100 109.16 2.5056-1.1025-1.6704-1.8041z" fill="#cab86f"/>
     <path d="m102.51 108.05 2.205 1.4032 1.2027-1.9377z" fill="#c3ae6d"/>
     <path d="m110.59 109.26 3.0068-0.3341-1.8709-2.2718z" fill="#d7bc81"/>
     <path d="m113.6 108.92 3.3075-0.63477-2.3052-1.4366z" fill="#d4bf7b"/>
     <path d="m107.19 110.19 1.5368-2.4723-2.8063-0.20043z" fill="#e3cfa3"/>
     <path d="m104.71 109.46 2.4723 0.73499-1.2695-2.6727z" fill="#c9b675"/>
     <path d="m100.57 110.36 1.9377-2.3052-2.5056 1.1025z" fill="#b8aa5e"/>
     <path d="m114.44 110.63 2.4722-2.3386-3.3075 0.63477z" fill="#dac77f"/>
     <path d="m107.19 110.19 3.4077-0.93544-1.8709-1.5368z" fill="#d3bf80"/>
     <path d="m101.94 111.29 0.56795-3.2406-1.9377 2.3052z" fill="#a6893f"/>
     <path d="m101.94 111.29 2.7729-1.8374-2.205-1.4032z" fill="#c4ac63"/>
     <path d="m113.6 108.92-0.40091 2.7729 1.2361-1.0691z" fill="#d9cb84"/>
     <path d="m101.94 111.29 1.9377 0.23389 0.8352-2.0713z" fill="#9a7a3a"/>
     <path d="m110.59 109.26 2.6058 2.4388 0.40091-2.7729z" fill="#cfbc76"/>
     <path d="m111.8 112.16 1.4032-0.46772-2.6058-2.4388z" fill="#dfd18b"/>
     <path d="m110.43 111.93 1.3698 0.23385-1.2027-2.9065z" fill="#edd588"/>
     <path d="m110.59 109.26-1.1359 3.0068 0.96885-0.33408z" fill="#a27c3d"/>
     <path d="m107.19 110.19 2.2718 2.0713 1.1359-3.0068z" fill="#e1ca89"/>
     <path d="m103.88 111.53 3.3075-1.3364-2.4723-0.73499z" fill="#b19d56"/>
     <path d="m105.18 113.3 2.0045-3.107-3.3075 1.3364z" fill="#baa65e"/>
     <path d="m107.19 110.19 1.6704 3.2406 0.60136-1.1693z" fill="#b99855"/>
     <path d="m105.18 113.3 3.675 0.13363-1.6704-3.2406z" fill="#bfac67"/>
     <path d="m105.18 113.3 2.372 1.5368 1.3029-1.4032z" fill="#ca9e5b"/>
    </g>
    <path d="m126.47 111.97-11.927-1.3564 2.3854-2.2918z" fill-opacity="0"/>
    <g>
     <path d="m110.49 99.129 2.1777-1.968-2.94-0.06682z" fill="#919727"/>
     <path d="m114.57 99.082 2.1332-1.286-2.4054-0.8018z" fill="#848916"/>
     <path d="m108.56 98.03 1.9316 1.0994-0.7623-2.0348z" fill="#81782a"/>
     <path d="m112.66 97.161 1.9092 1.9208-0.28349-2.0789z" fill="#919727"/>
     <path d="m98.333 97.83 1.1225 1.9613 0.41432-1.8945z" fill="#acb139"/>
     <path d="m116.94 100 1.8422-1.2385-2.0714-0.96886z" fill="#7f8517"/>
     <path d="m108.81 100.31 1.6773-1.1812-1.9316-1.0994z" fill="#a5a435"/>
     <path d="m114.57 99.082 2.3624 0.92132-0.22911-2.2073z" fill="#a4ac2c"/>
     <path d="m97.03 99.066 2.4254 0.72519-1.1225-1.9613z" fill="#c0be57"/>
     <path d="m97.943 100.71 1.5119-0.92132-2.4254-0.72519z" fill="#c0c84d"/>
     <path d="m111.9 100.71 0.76025-3.5508-2.1777 1.968z" fill="#72751a"/>
     <path d="m111.9 100.71 2.6695-1.63-1.9092-1.9208z" fill="#6c6b22"/>
     <path d="m105.28 99.266 3.5284 1.0444-0.25434-2.2806z" fill="#9ba12a"/>
     <path d="m99.455 99.791 4.0559 0.0098-3.6416-1.9043z" fill="#b4b93e"/>
     <path d="m100.92 101.33 2.5912-1.5257-4.0559-0.0098z" fill="#a4b236"/>
     <path d="m118.78 98.765 0.96884 2.6727 1.1359-1.2695z" fill="#acb830"/>
     <path d="m106.16 101.78 2.6458-1.4647-3.5284-1.0444z" fill="#abb537"/>
     <path d="m116.94 100 2.8111 1.4342-0.96884-2.6727z" fill="#919617"/>
     <path d="m108.81 100.31 3.0947 0.4016-1.4174-1.5828z" fill="#acb830"/>
     <path d="m113.35 102.41 1.2284-3.3309-2.6695 1.63z" fill="#848916"/>
     <path d="m103.51 99.801 2.6532 1.9746-0.88255-2.5091z" fill="#9cad10"/>
     <path d="m100.92 101.33 2.5277 0.8032 0.0635-2.3289z" fill="#bbc03f"/>
     <path d="m103.45 102.13 2.7167-0.35435-2.6532-1.9746z" fill="#b8b357"/>
     <path d="m116.91 99.997 1.4316 2.7106 1.4032-1.2696z" fill="#676204"/>
     <path d="m114.57 99.082 2.0552 3.0238 0.30711-2.1025z" fill="#676823"/>
     <path d="m116.63 102.11 1.715 0.60128-1.4079-2.7038z" fill="#acb439"/>
     <path d="m97.943 100.71 2.9766 0.61421-1.4647-1.5355z" fill="#aabd3e"/>
     <path d="m109.33 102.7 2.575-1.9844-3.0947-0.4016z" fill="#acb22b"/>
     <path d="m113.35 102.41 3.2837-0.3071-2.0552-3.0238z" fill="#747812"/>
     <path d="m97.564 102.07 3.3555-0.74608-2.9766-0.61421z" fill="#bacc40"/>
     <path d="m106.16 101.78 3.1656 0.92132-0.51971-2.386z" fill="#a9b024"/>
     <path d="m97.564 102.07 2.0326 1.4273 1.3229-2.1734z" fill="#d5d25b"/>
     <path d="m116.41 103.58 1.9377-0.86859-1.715-0.60128z" fill="#acb439"/>
     <path d="m101.46 104.18 1.9844-2.0552-2.5277-0.8032z" fill="#b9be2b"/>
     <path d="m99.597 103.5 1.8663 0.68508-0.54334-2.8584z" fill="#bfc142"/>
     <path d="m113.35 102.41 3.061 1.1628 0.22266-1.4699z" fill="#645c0e"/>
     <path d="m114.47 104.34 1.9377-0.76841-3.061-1.1628z" fill="#625b06"/>
     <path d="m101.47 104.18 2.0926-0.39397-0.11812-1.6536z" fill="#a8b016"/>
     <path d="m106.52 104.11 2.8112-1.4174-3.1656-0.92132z" fill="#7b7f10"/>
     <path d="m103.57 103.78 2.5986-2.008-2.7167 0.35435z" fill="#b8b54d"/>
     <path d="m109.33 102.7 4.016-0.28349-1.441-1.7009z" fill="#615c03"/>
     <path d="m103.57 103.78 2.9529 0.33074-0.35436-2.3387z" fill="#9b9434"/>
     <path d="m111.03 104.98 2.3178-2.566-4.016 0.28349z" fill="#848916"/>
     <path d="m113.35 102.41-0.24647 2.8332 1.3698-0.90204z" fill="#5b580a"/>
     <path d="m106.52 104.11 1.9703 1.1323 0.84087-2.5497z" fill="#888f09"/>
     <path d="m102.07 105.18 1.4912-1.3962-2.0926 0.39397z" fill="#ada530"/>
     <path d="m111.03 104.98 2.0713 0.26725 0.24647-2.8332z" fill="#5f5e0a"/>
     <path d="m104.35 105.38 2.1724-1.266-2.9529-0.33074z" fill="#a19c33"/>
     <path d="m108.49 105.25 2.5391-0.26725-1.6982-2.2825z" fill="#859410"/>
     <path d="m102.07 105.18 2.2718 0.20045-0.78059-1.5967z" fill="#a79e3a"/>
     <path d="m106.62 105.98 1.8709-0.735-1.9703-1.1323z" fill="#888f09"/>
     <path d="m104.35 105.38 2.2718 0.60137-0.0994-1.8673z" fill="#a29842"/>
     <path d="m132.79 101.01 3.5063 3.663-1.6542-4.2252z" fill="#fdc501"/>
     <path d="m77.829 106.87 4.1093-4.3399-1.0223 0.0369z" fill="#d2b298"/>
     <path d="m77.829 106.87 6.3748-3.48-2.2655-0.85989z" fill="#e2882a"/>
     <path d="m123.49 105.31 2.9827 6.6561 0.0575-6.8566z" fill="#fdd108"/>
     <path d="m86.982 104.71 1.5112 9.2197 1.1016-8.2275z" fill="#fda706"/>
     <path d="m136.29 104.67 8.7932 5.0982-3.087-5.6594z" fill="#f6bd0a"/>
     <path d="m88.493 113.93 5.1034-7.8802-4.0018-0.34726z" fill="#feaf02"/>
     <path d="m77.829 106.87 9.1529-2.1571-2.7781-1.3229z" fill="#e97d00"/>
     <path d="m138.35 114.87 6.7352-5.0982-8.7932-5.0982z" fill="#fec701"/>
     <path d="m126.47 111.97 9.8222-7.2965-4.4527-1.1303z" fill="#feda00"/>
     <path d="m77.829 106.87 10.664 7.0626-1.5112-9.2197z" fill="#f78002"/>
     <path d="m138.35 114.87 7.9625-0.96085-1.2273-4.1373z" fill="#febc01"/>
     <path d="m126.47 111.97 11.88 2.8999-2.058-10.196z" fill="#fedf04"/>
     <path d="m100.53 110.32-0.15206 6.9814 1.5577-6.0223z" fill="#f89704"/>
     <path d="m75.911 110.99 12.582 2.9466-10.664-7.0626z" fill="#d85b01"/>
     <path d="m88.493 113.93 10.643-5.6974-5.5397-2.1828z" fill="#fdc021"/>
     <path d="m88.493 113.93 11.88 3.3676 0.15206-6.9814z" fill="#fda301"/>
     <path d="m114.44 110.63 12.036 1.3442-9.5642-3.6828z" fill="#ffc60d"/>
     <path d="m100.37 117.3 7.18-2.4835-2.3647-1.5214z" fill="#fda405"/>
     <path d="m138.35 114.87 8.9802 3.6482-1.0177-4.6091z" fill="#feba02"/>
     <path d="m74.227 116.27 14.266-2.3386-12.582-2.9466z" fill="#db5902"/>
     <path d="m114.31 120.2 12.161-8.2319-12.036-1.3442z" fill="#fec203"/>
     <path d="m128.44 122.54 9.9157-7.6706-11.88-2.8999z" fill="#fdde41"/>
     <path d="m114.31 120.2 14.125 2.3386-1.9644-10.571z" fill="#fdcc46"/>
     <path d="m73.573 122.07 14.92-8.1384-14.266 2.3386z" fill="#cb4902"/>
     <path d="m116.09 127.12 12.348-4.5837-14.125-2.3386z" fill="#fcb717"/>
     <path d="m73.573 122.07 13.143 6.4546 1.7773-14.593z" fill="#e26102"/>
     <path d="m138.35 114.87 9.6351 9.4948-0.65482-5.8465z" fill="#fdb501"/>
     <path d="m128.44 122.54 9.7286 7.7642 0.18709-15.435z" fill="#fecc01"/>
     <path d="m138.16 130.3 9.8222-5.9401-9.6351-9.4948z" fill="#feb601"/>
     <path d="m86.716 128.53 13.657-11.225-11.88-3.3676z" fill="#fd8501"/>
     <path d="m100.84 128.71 6.7123-13.896-7.18 2.4835z" fill="#fe9e01"/>
     <path d="m100.84 128.71 13.47-8.5125-6.7581-5.3834z" fill="#fd9902"/>
     <path d="m86.716 128.53 14.125 0.18709-0.46772-11.412z" fill="#fc7e01"/>
     <path d="m138.16 130.3 9.5883-0.18709 0.23386-5.753z" fill="#fdb91e"/>
     <path d="m73.994 129.74 12.722-1.2161-13.143-6.4546z" fill="#d25e28"/>
     <path d="m100.84 128.71 15.248-1.5903-1.7773-6.9223z" fill="#fe8201"/>
     <path d="m128.72 136.67 9.448-6.361-9.7286-7.7642z" fill="#fead00"/>
     <path d="m116.09 127.12 12.628 9.5415-0.28064-14.125z" fill="#feb003"/>
     <path d="m138.16 130.3 8.9335 6.2675 0.65482-6.4546z" fill="#feac21"/>
     <path d="m75.724 136.85 10.991-8.3254-12.722 1.2161z" fill="#d75724"/>
     <path d="m116.65 138.91 12.067-2.2451-12.628-9.5415z" fill="#fe7b01"/>
     <path d="m89.335 140.31 11.506-11.6-14.125-0.18709z" fill="#f16301"/>
     <path d="m104.58 140.59 11.506-13.47-15.248 1.5903z" fill="#fd6c01"/>
     <path d="m104.58 140.59 12.067-1.6838-0.56127-11.787z" fill="#ff7101"/>
     <path d="m75.724 136.85 13.611 3.4612-2.6192-11.787z" fill="#e05705"/>
     <path d="m138.16 130.3 7.4836 11.646 1.4499-5.3788z" fill="#f09d2d"/>
     <path d="m78.11 143.26 11.225-2.9466-13.611-3.4612z" fill="#db5427"/>
     <path d="m89.335 140.31 15.248 0.28062-3.7418-11.88z" fill="#f46601"/>
     <path d="m133.96 145.93 4.2095-15.622-9.448 6.361z" fill="#fe9600"/>
     <path d="m116.65 138.91 7.6706 7.6706 4.3966-9.9157z" fill="#fe7301"/>
     <path d="m133.96 145.93 11.693-3.9756-7.4836-11.646z" fill="#fe9b03"/>
     <path d="m104.58 140.59 7.2964 7.4836 4.7708-9.1673z" fill="#fb6802"/>
     <path d="m124.32 146.58 9.6351-0.6548-5.2385-9.2609z" fill="#fe7a01"/>
     <path d="m133.96 145.93 9.3544 2.4789 2.3386-6.4546z" fill="#fd903f"/>
     <path d="m81.384 149.53 7.9513-9.2141-11.225 2.9466z" fill="#dd5426"/>
     <path d="m94.386 151.35 10.196-10.758-15.248-0.28062z" fill="#ed5401"/>
     <path d="m111.88 148.08 12.441-1.4967-7.6706-7.6706z" fill="#fb6b01"/>
     <path d="m81.384 149.53 13.003 1.8241-5.0514-11.038z" fill="#e24e15"/>
     <path d="m133.96 145.93 4.4434 9.6818 4.9111-7.2029z" fill="#fd8535"/>
     <path d="m86.903 156.03 7.4835-4.6772-13.003-1.8241z" fill="#d8542e"/>
     <path d="m124.88 155.28 9.0738-9.3544-9.6351 0.6548z" fill="#ff7001"/>
     <path d="m94.386 151.35 17.493-3.274-7.2964-7.4836z" fill="#f25a01"/>
     <path d="m111.88 148.08 13.003 7.2029-0.56126-8.6996z" fill="#fd6600"/>
     <path d="m124.88 155.28 13.517 0.32741-4.4434-9.6818z" fill="#ff7606"/>
     <path d="m94.386 151.35 13.751 7.6706 3.7418-10.945z" fill="#f45402"/>
     <path d="m86.903 156.03 7.3432 4.8175 0.14031-9.4948z" fill="#d74719"/>
     <path d="m129.75 161.41 8.6529-5.7998-13.517-0.32741z" fill="#fc702f"/>
     <path d="m94.246 160.85 13.891-1.8241-13.751-7.6706z" fill="#e3440a"/>
     <path d="m108.14 159.02 16.744-3.7418-13.003-7.2029z" fill="#fa5b01"/>
     <path d="m94.246 160.85 8.8867 3.5079 5.0046-5.332z" fill="#d63f13"/>
     <path d="m122.4 164.59 7.3432-3.1805-4.8643-6.1272z" fill="#f5612e"/>
     <path d="m112.86 165.34 12.02-10.056-16.744 3.7418z" fill="#f0520d"/>
     <path d="m112.86 165.34 9.5415-0.74835 2.4789-9.3077z" fill="#f25a21"/>
     <path d="m103.13 164.35 9.7286 0.98221-4.724-6.3142z" fill="#d84217"/>
     <path d="m136.29 104.67 5.7062-0.56127-1.8144-2.0603z" fill="#f2bc05"/>
     <path d="m136.29 104.67 0.85158-5.2642 3.0402 2.6426z" fill="#fcc504"/>
     <path d="m137.15 99.409-0.85158 5.2642-1.6542-4.2252z" fill="#fcc703"/>
     <path d="m129.94 95.825 2.5313 0.80059 2.0814 1.0758 2.058 1.3096 0.53788 0.39756-2.5058 1.039-0.42643-0.9142-1.1693-1.4366-1.303-1.1693z" fill="#f8c834"/>
     <path d="m126.47 111.97-2.9827-6.6561h-3.107l-2.1382 0.70159-1.3363 2.2718z" fill="#fccc32"/>
     <path d="m131.84 103.54-5.3695 8.4268 0.0575-6.8566 0.90203-0.4343 2.1113-0.6484z" fill="#fdd604"/>
     <path d="m136.29 104.67-3.5063-3.663-1.0466 0.16058-0.0668 1.1693 0.16706 1.2027z" fill="#fdd111"/>
     <path d="m114.44 110.63-0.12432 9.5761-6.7581-5.3834 1.3031-1.3864 0.60136-1.1693 0.96885-0.33408 1.3698 0.23385 1.4032-0.46772z" fill="#feaa02"/>
     <path d="m105.19 113.3-4.8153 4.0048 1.5676-6.008 1.9377 0.23389z" fill="#f69306"/>
     <path d="m100.57 110.36-0.56794-1.2027-0.80181-0.96883-10.708 5.7474z" fill="#fcbe2d"/>
     <path d="m93.596 106.05 0.72712-0.70694 2.1716-0.46772 2.1048-0.0668-0.53454 1.1693 0.26726 1.3364 0.86863 0.86863z" fill="#e89434"/>
     <path d="m81.938 102.53 0.7925-0.72601 0.93545 0.16707 0.60136 1.4032z" fill="#ccb276"/>
    </g>
   </g>
  </g>
 </g>
</svg>
